g Combined_M_Cmn_ami01_Prefab_Mesh
v -70.99959 119.8537 -146.7197
v -76.23483 126.9213 -127.7604
v -82.40025 126.894 -141.6859
v -64.83417 119.881 -132.7942
v -76.23483 126.9213 -127.7604
v -58.66875 119.9086 -118.8687
v -70.06941 126.949 -113.8349
v -64.83417 119.881 -132.7942
v -84.56847 128.2326 -140.7287
v -89.80342 135.3006 -121.7694
v -95.96883 135.273 -135.6949
v -78.40274 128.2602 -126.8032
v -89.80342 135.3006 -121.7694
v -72.23732 128.2876 -112.8777
v -83.63799 135.3279 -107.8442
v -78.40274 128.2602 -126.8032
v -98.13707 136.6119 -134.7377
v -103.3723 143.6796 -115.7784
v -109.5377 143.6522 -129.7039
v -91.97163 136.6392 -120.8122
v -103.3723 143.6796 -115.7784
v -85.80623 136.6668 -106.8867
v -97.20689 143.7072 -101.8532
v -91.97163 136.6392 -120.8122
v -111.7056 144.9908 -128.7467
v -116.9409 152.0588 -109.7877
v -123.1063 152.0312 -123.7129
v -105.5402 145.0184 -114.8212
v -116.9409 152.0588 -109.7877
v -99.3748 145.0458 -100.8957
v -110.7755 152.0861 -95.86217
v -105.5402 145.0184 -114.8212
v -85.64607 126.1432 -140.2473
v -97.04674 133.1833 -135.2135
v -90.88133 133.2109 -121.288
v -79.48065 126.1705 -126.3218
v -90.88133 133.2109 -121.288
v -84.7159 133.2382 -107.3628
v -73.31523 126.1982 -112.3963
v -79.48065 126.1705 -126.3218
v -72.07748 117.764 -146.2383
v -83.47816 124.8043 -141.2045
v -77.31274 124.8316 -127.279
v -65.91206 117.7916 -132.3128
v -77.31274 124.8316 -127.279
v -71.14732 124.8593 -113.3538
v -59.74664 117.8189 -118.3873
v -65.91206 117.7916 -132.3128
v -99.21495 134.5222 -134.2563
v -110.6156 141.5625 -129.2225
v -104.4502 141.5899 -115.2973
v -93.04955 134.5498 -120.3308
v -104.4502 141.5899 -115.2973
v -98.28447 141.6175 -101.3718
v -86.88411 134.5771 -106.4053
v -93.04955 134.5498 -120.3308
v -112.7835 142.9014 -128.2653
v -124.1842 149.9415 -123.2315
v -118.0188 149.9691 -109.3063
v -106.6181 142.9288 -114.3398
v -118.0188 149.9691 -109.3063
v -111.8534 149.9964 -95.3808
v -100.4527 142.9564 -100.4143
v -106.6181 142.9288 -114.3398
v -10.71191 91.56474 -173.3559
v -15.94687 98.63271 -154.3969
v -22.11229 98.60509 -168.3221
v -4.546188 91.59236 -159.4304
v -15.94687 98.63271 -154.3969
v 1.619232 91.61967 -145.5049
v -9.781448 98.66002 -140.4714
v -4.546188 91.59236 -159.4304
v -24.2805 99.94402 -167.3649
v -29.51575 107.0117 -148.4059
v -35.68117 106.9844 -162.3311
v -18.11508 99.97133 -153.4394
v -29.51575 107.0117 -148.4059
v -11.94966 99.99895 -139.5139
v -23.35002 107.0393 -134.4804
v -18.11508 99.97133 -153.4394
v -37.84908 108.323 -161.3739
v -43.08434 115.3909 -142.4149
v -49.24976 115.3633 -156.3401
v -31.68365 108.3506 -147.4484
v -43.08434 115.3909 -142.4149
v -25.51823 108.3779 -133.5229
v -36.91891 115.4182 -128.4894
v -31.68365 108.3506 -147.4484
v -51.41797 116.7022 -155.3829
v -56.65291 123.7699 -136.4239
v -62.81833 123.7426 -150.3494
v -45.25224 116.7295 -141.4574
v -56.65291 123.7699 -136.4239
v -39.08682 116.7572 -127.5319
v -50.48749 123.7975 -122.4984
v -45.25224 116.7295 -141.4574
v -64.98656 125.0812 -149.3919
v -70.2218 132.1491 -130.4329
v -76.38722 132.1215 -144.3584
v -58.82114 125.1088 -135.4664
v -70.2218 132.1491 -130.4329
v -52.65572 125.1361 -121.5409
v -64.05608 132.1764 -116.5074
v -58.82114 125.1088 -135.4664
v -25.3584 97.85432 -166.8835
v -36.75908 104.8947 -161.8497
v -30.59366 104.922 -147.9245
v -19.19298 97.88194 -152.958
v -30.59366 104.922 -147.9245
v -24.42792 104.9496 -133.999
v -13.02725 97.90926 -139.0325
v -19.19298 97.88194 -152.958
v -11.78951 89.47536 -172.8745
v -23.19019 96.5154 -167.841
v -17.02477 96.54301 -153.9155
v -5.624084 89.50267 -158.949
v -17.02477 96.54301 -153.9155
v -10.85934 96.57063 -139.99
v 0.5413361 89.53029 -145.0235
v -5.624084 89.50267 -158.949
v -38.92699 106.2336 -160.8925
v -50.32765 113.2736 -155.859
v -44.16223 113.3012 -141.9335
v -32.76157 106.2609 -146.967
v -44.16223 113.3012 -141.9335
v -37.99681 113.3285 -128.008
v -26.59615 106.2885 -133.0415
v -32.76157 106.2609 -146.967
v -52.49556 114.6125 -154.9016
v -63.89624 121.6529 -149.868
v -57.73082 121.6802 -135.9425
v -46.33014 114.6402 -140.9763
v -57.73082 121.6802 -135.9425
v -51.5654 121.7078 -122.017
v -40.16472 114.6675 -127.0509
v -46.33014 114.6402 -140.9763
v -66.06445 122.9918 -148.9106
v -77.46513 130.0318 -143.877
v -71.29971 130.0594 -129.9515
v -59.89903 123.0191 -134.9854
v -71.29971 130.0594 -129.9515
v -65.13397 130.0867 -116.026
v -53.73361 123.0467 -121.0596
v -59.89903 123.0191 -134.9854
v 40.31721 121.7826 144.9527
v 43.44818 125.719 134.6165
v 46.6254 125.719 142.3667
v 37.13969 121.7826 137.2025
v 43.44818 125.719 134.6165
v 33.96248 121.7826 129.4524
v 40.27066 125.719 126.8664
v 37.13969 121.7826 137.2025
v 47.82497 126.4676 141.8748
v 50.95594 130.4036 131.5387
v 54.13316 130.4036 139.2888
v 44.64775 126.4676 134.1246
v 50.95594 130.4036 131.5387
v 41.47054 126.4676 126.3745
v 47.77872 130.4036 123.7885
v 44.64775 126.4676 134.1246
v 55.33273 131.1522 138.7969
v 58.46369 135.0886 128.4604
v 61.64091 135.0886 136.2106
v 52.15551 131.1522 131.0467
v 58.46369 135.0886 128.4604
v 48.97829 131.1522 123.2966
v 55.28648 135.0886 120.7106
v 52.15551 131.1522 131.0467
v 62.84079 135.8372 135.7189
v 65.97145 139.7733 125.3825
v 69.14898 139.7733 133.1327
v 59.66326 135.8372 127.9688
v 65.97145 139.7733 125.3825
v 56.48605 135.8372 120.2187
v 62.79424 139.7733 117.6324
v 59.66326 135.8372 127.9688
v 70.34854 140.5219 132.6411
v 73.47952 144.4579 122.3046
v 76.65673 144.4579 130.0548
v 67.17133 140.5219 124.8909
v 73.47952 144.4579 122.3046
v 63.99411 140.5219 117.1408
v 70.3023 144.4579 114.5545
v 67.17133 140.5219 124.8909
v 77.85629 145.2065 129.5629
v 80.98727 149.1429 119.2267
v 84.16448 149.1429 126.9769
v 74.67908 145.2065 121.813
v 80.98727 149.1429 119.2267
v 71.50186 145.2065 114.0629
v 77.81005 149.1429 111.4766
v 74.67908 145.2065 121.813
v 48.43577 125.3245 141.6243
v 54.74396 129.2605 139.0383
v 51.56643 129.2605 131.2882
v 45.25824 125.3245 133.8742
v 51.56643 129.2605 131.2882
v 48.38921 129.2605 123.538
v 42.08102 125.3245 126.124
v 45.25824 125.3245 133.8742
v 40.9277 120.6395 144.7022
v 47.23589 124.5759 142.1162
v 44.05869 124.5759 134.3661
v 37.75049 120.6395 136.9523
v 44.05869 124.5759 134.3661
v 40.88145 124.5759 126.6159
v 34.57327 120.6395 129.2022
v 37.75049 120.6395 136.9523
v 55.94353 130.0092 138.5464
v 62.25171 133.9455 135.9604
v 59.07449 133.9455 128.2103
v 52.7663 130.0092 130.7962
v 59.07449 133.9455 128.2103
v 55.89728 133.9455 120.4601
v 49.58909 130.0092 123.0461
v 52.7663 130.0092 130.7962
v 63.45128 134.6938 135.4685
v 69.75947 138.6302 132.8825
v 66.58225 138.6302 125.1324
v 60.27406 134.6938 127.7183
v 66.58225 138.6302 125.1324
v 63.40503 138.6302 117.3822
v 57.09684 134.6938 119.9682
v 60.27406 134.6938 127.7183
v 70.95903 139.3788 132.3906
v 77.26753 143.3149 129.8046
v 74.09 143.3149 122.0542
v 67.78181 139.3788 124.6405
v 74.09 143.3149 122.0542
v 70.91279 143.3149 114.3043
v 64.6046 139.3788 116.8903
v 67.78181 139.3788 124.6405
v 78.46709 144.0635 129.3127
v 84.77528 147.9998 126.7264
v 81.59807 147.9998 118.9763
v 75.28988 144.0635 121.5625
v 81.59807 147.9998 118.9763
v 78.42054 147.9998 111.2261
v 72.11235 144.0635 113.8124
v 75.28988 144.0635 121.5625
vt -1.5 2.5
vt 2.5 -1.5
vt 2.5 2.5
vt -1.5 -1.5
vt -1.5 2.5
vt 2.5 -1.5
vt 2.5 2.5
vt -1.5 -1.5
vt -1.5 2.5
vt 2.5 -1.5
vt 2.5 2.5
vt -1.5 -1.5
vt -1.5 2.5
vt 2.5 -1.5
vt 2.5 2.5
vt -1.5 -1.5
vt -1.5 2.5
vt 2.5 -1.5
vt 2.5 2.5
vt -1.5 -1.5
vt -1.5 2.5
vt 2.5 -1.5
vt 2.5 2.5
vt -1.5 -1.5
vt -1.5 2.5
vt 2.5 -1.5
vt 2.5 2.5
vt -1.5 -1.5
vt -1.5 2.5
vt 2.5 -1.5
vt 2.5 2.5
vt -1.5 -1.5
vt -1.5 2.5
vt 2.5 2.5
vt 2.5 -1.5
vt -1.5 -1.5
vt -1.5 2.5
vt 2.5 2.5
vt 2.5 -1.5
vt -1.5 -1.5
vt -1.5 2.5
vt 2.5 2.5
vt 2.5 -1.5
vt -1.5 -1.5
vt -1.5 2.5
vt 2.5 2.5
vt 2.5 -1.5
vt -1.5 -1.5
vt -1.5 2.5
vt 2.5 2.5
vt 2.5 -1.5
vt -1.5 -1.5
vt -1.5 2.5
vt 2.5 2.5
vt 2.5 -1.5
vt -1.5 -1.5
vt -1.5 2.5
vt 2.5 2.5
vt 2.5 -1.5
vt -1.5 -1.5
vt -1.5 2.5
vt 2.5 2.5
vt 2.5 -1.5
vt -1.5 -1.5
vt -1.5 2.5
vt 2.5 -1.5
vt 2.5 2.5
vt -1.5 -1.5
vt -1.5 2.5
vt 2.5 -1.5
vt 2.5 2.5
vt -1.5 -1.5
vt -1.5 2.5
vt 2.5 -1.5
vt 2.5 2.5
vt -1.5 -1.5
vt -1.5 2.5
vt 2.5 -1.5
vt 2.5 2.5
vt -1.5 -1.5
vt -1.5 2.5
vt 2.5 -1.5
vt 2.5 2.5
vt -1.5 -1.5
vt -1.5 2.5
vt 2.5 -1.5
vt 2.5 2.5
vt -1.5 -1.5
vt -1.5 2.5
vt 2.5 -1.5
vt 2.5 2.5
vt -1.5 -1.5
vt -1.5 2.5
vt 2.5 -1.5
vt 2.5 2.5
vt -1.5 -1.5
vt -1.5 2.5
vt 2.5 -1.5
vt 2.5 2.5
vt -1.5 -1.5
vt -1.5 2.5
vt 2.5 -1.5
vt 2.5 2.5
vt -1.5 -1.5
vt -1.5 2.5
vt 2.5 2.5
vt 2.5 -1.5
vt -1.5 -1.5
vt -1.5 2.5
vt 2.5 2.5
vt 2.5 -1.5
vt -1.5 -1.5
vt -1.5 2.5
vt 2.5 2.5
vt 2.5 -1.5
vt -1.5 -1.5
vt -1.5 2.5
vt 2.5 2.5
vt 2.5 -1.5
vt -1.5 -1.5
vt -1.5 2.5
vt 2.5 2.5
vt 2.5 -1.5
vt -1.5 -1.5
vt -1.5 2.5
vt 2.5 2.5
vt 2.5 -1.5
vt -1.5 -1.5
vt -1.5 2.5
vt 2.5 2.5
vt 2.5 -1.5
vt -1.5 -1.5
vt -1.5 2.5
vt 2.5 2.5
vt 2.5 -1.5
vt -1.5 -1.5
vt -1.5 2.5
vt 2.5 2.5
vt 2.5 -1.5
vt -1.5 -1.5
vt -1.5 2.5
vt 2.5 2.5
vt 2.5 -1.5
vt -1.5 -1.5
vt -1.5 2.5
vt 2.5 -1.5
vt 2.5 2.5
vt -1.5 -1.5
vt -1.5 2.5
vt 2.5 -1.5
vt 2.5 2.5
vt -1.5 -1.5
vt -1.5 2.5
vt 2.5 -1.5
vt 2.5 2.5
vt -1.5 -1.5
vt -1.5 2.5
vt 2.5 -1.5
vt 2.5 2.5
vt -1.5 -1.5
vt -1.5 2.5
vt 2.5 -1.5
vt 2.5 2.5
vt -1.5 -1.5
vt -1.5 2.5
vt 2.5 -1.5
vt 2.5 2.5
vt -1.5 -1.5
vt -1.5 2.5
vt 2.5 -1.5
vt 2.5 2.5
vt -1.5 -1.5
vt -1.5 2.5
vt 2.5 -1.5
vt 2.5 2.5
vt -1.5 -1.5
vt -1.5 2.5
vt 2.5 -1.5
vt 2.5 2.5
vt -1.5 -1.5
vt -1.5 2.5
vt 2.5 -1.5
vt 2.5 2.5
vt -1.5 -1.5
vt -1.5 2.5
vt 2.5 -1.5
vt 2.5 2.5
vt -1.5 -1.5
vt -1.5 2.5
vt 2.5 -1.5
vt 2.5 2.5
vt -1.5 -1.5
vt -1.5 2.5
vt 2.5 2.5
vt 2.5 -1.5
vt -1.5 -1.5
vt -1.5 2.5
vt 2.5 2.5
vt 2.5 -1.5
vt -1.5 -1.5
vt -1.5 2.5
vt 2.5 2.5
vt 2.5 -1.5
vt -1.5 -1.5
vt -1.5 2.5
vt 2.5 2.5
vt 2.5 -1.5
vt -1.5 -1.5
vt -1.5 2.5
vt 2.5 2.5
vt 2.5 -1.5
vt -1.5 -1.5
vt -1.5 2.5
vt 2.5 2.5
vt 2.5 -1.5
vt -1.5 -1.5
vt -1.5 2.5
vt 2.5 2.5
vt 2.5 -1.5
vt -1.5 -1.5
vt -1.5 2.5
vt 2.5 2.5
vt 2.5 -1.5
vt -1.5 -1.5
vt -1.5 2.5
vt 2.5 2.5
vt 2.5 -1.5
vt -1.5 -1.5
vt -1.5 2.5
vt 2.5 2.5
vt 2.5 -1.5
vt -1.5 -1.5
vt -1.5 2.5
vt 2.5 2.5
vt 2.5 -1.5
vt -1.5 -1.5
vt -1.5 2.5
vt 2.5 2.5
vt 2.5 -1.5
vt -1.5 -1.5
vn 0.4485299 0.8706707 -0.2018749
vn 0.4485299 0.8706707 -0.2018749
vn 0.4485299 0.8706707 -0.2018749
vn 0.4485299 0.8706707 -0.2018749
vn 0.4485299 0.8706707 -0.2018749
vn 0.4485299 0.8706707 -0.2018749
vn 0.4485299 0.8706707 -0.2018749
vn 0.4485299 0.8706707 -0.2018749
vn 0.4485299 0.8706707 -0.2018749
vn 0.4485299 0.8706707 -0.2018749
vn 0.4485299 0.8706707 -0.2018749
vn 0.4485299 0.8706707 -0.2018749
vn 0.4485299 0.8706707 -0.2018749
vn 0.4485299 0.8706707 -0.2018749
vn 0.4485299 0.8706707 -0.2018749
vn 0.4485299 0.8706707 -0.2018749
vn 0.4485299 0.8706707 -0.2018749
vn 0.4485299 0.8706707 -0.2018749
vn 0.4485299 0.8706707 -0.2018749
vn 0.4485299 0.8706707 -0.2018749
vn 0.4485299 0.8706707 -0.2018749
vn 0.4485299 0.8706707 -0.2018749
vn 0.4485299 0.8706707 -0.2018749
vn 0.4485299 0.8706707 -0.2018749
vn 0.4485299 0.8706707 -0.2018749
vn 0.4485299 0.8706707 -0.2018749
vn 0.4485299 0.8706707 -0.2018749
vn 0.4485299 0.8706707 -0.2018749
vn 0.4485299 0.8706707 -0.2018749
vn 0.4485299 0.8706707 -0.2018749
vn 0.4485299 0.8706707 -0.2018749
vn 0.4485299 0.8706707 -0.2018749
vn -0.4502287 -0.8706741 0.1980421
vn -0.4502287 -0.8706741 0.1980421
vn -0.4502287 -0.8706741 0.1980421
vn -0.4502287 -0.8706741 0.1980421
vn -0.4502287 -0.8706741 0.1980421
vn -0.4502287 -0.8706741 0.1980421
vn -0.4502287 -0.8706741 0.1980421
vn -0.4502287 -0.8706741 0.1980421
vn -0.4502287 -0.8706741 0.1980421
vn -0.4502287 -0.8706741 0.1980421
vn -0.4502287 -0.8706741 0.1980421
vn -0.4502287 -0.8706741 0.1980421
vn -0.4502287 -0.8706741 0.1980421
vn -0.4502287 -0.8706741 0.1980421
vn -0.4502287 -0.8706741 0.1980421
vn -0.4502287 -0.8706741 0.1980421
vn -0.4502287 -0.8706741 0.1980421
vn -0.4502287 -0.8706741 0.1980421
vn -0.4502287 -0.8706741 0.1980421
vn -0.4502287 -0.8706741 0.1980421
vn -0.4502287 -0.8706741 0.1980421
vn -0.4502287 -0.8706741 0.1980421
vn -0.4502287 -0.8706741 0.1980421
vn -0.4502287 -0.8706741 0.1980421
vn -0.4502287 -0.8706741 0.1980421
vn -0.4502287 -0.8706741 0.1980421
vn -0.4502287 -0.8706741 0.1980421
vn -0.4502287 -0.8706741 0.1980421
vn -0.4502287 -0.8706741 0.1980421
vn -0.4502287 -0.8706741 0.1980421
vn -0.4502287 -0.8706741 0.1980421
vn -0.4502287 -0.8706741 0.1980421
vn 0.4485299 0.8706707 -0.2018749
vn 0.4485299 0.8706707 -0.2018749
vn 0.4485299 0.8706707 -0.2018749
vn 0.4485299 0.8706707 -0.2018749
vn 0.4485299 0.8706707 -0.2018749
vn 0.4485299 0.8706707 -0.2018749
vn 0.4485299 0.8706707 -0.2018749
vn 0.4485299 0.8706707 -0.2018749
vn 0.4485299 0.8706707 -0.2018749
vn 0.4485299 0.8706707 -0.2018749
vn 0.4485299 0.8706707 -0.2018749
vn 0.4485299 0.8706707 -0.2018749
vn 0.4485299 0.8706707 -0.2018749
vn 0.4485299 0.8706707 -0.2018749
vn 0.4485299 0.8706707 -0.2018749
vn 0.4485299 0.8706707 -0.2018749
vn 0.4485299 0.8706707 -0.2018749
vn 0.4485299 0.8706707 -0.2018749
vn 0.4485299 0.8706707 -0.2018749
vn 0.4485299 0.8706707 -0.2018749
vn 0.4485299 0.8706707 -0.2018749
vn 0.4485299 0.8706707 -0.2018749
vn 0.4485299 0.8706707 -0.2018749
vn 0.4485299 0.8706707 -0.2018749
vn 0.4485299 0.8706707 -0.2018749
vn 0.4485299 0.8706707 -0.2018749
vn 0.4485299 0.8706707 -0.2018749
vn 0.4485299 0.8706707 -0.2018749
vn 0.4485299 0.8706707 -0.2018749
vn 0.4485299 0.8706707 -0.2018749
vn 0.4485299 0.8706707 -0.2018749
vn 0.4485299 0.8706707 -0.2018749
vn 0.4485299 0.8706707 -0.2018749
vn 0.4485299 0.8706707 -0.2018749
vn 0.4485299 0.8706707 -0.2018749
vn 0.4485299 0.8706707 -0.2018749
vn 0.4485299 0.8706707 -0.2018749
vn 0.4485299 0.8706707 -0.2018749
vn 0.4485299 0.8706707 -0.2018749
vn 0.4485299 0.8706707 -0.2018749
vn -0.4502287 -0.8706741 0.1980421
vn -0.4502287 -0.8706741 0.1980421
vn -0.4502287 -0.8706741 0.1980421
vn -0.4502287 -0.8706741 0.1980421
vn -0.4502287 -0.8706741 0.1980421
vn -0.4502287 -0.8706741 0.1980421
vn -0.4502287 -0.8706741 0.1980421
vn -0.4502287 -0.8706741 0.1980421
vn -0.4502287 -0.8706741 0.1980421
vn -0.4502287 -0.8706741 0.1980421
vn -0.4502287 -0.8706741 0.1980421
vn -0.4502287 -0.8706741 0.1980421
vn -0.4502287 -0.8706741 0.1980421
vn -0.4502287 -0.8706741 0.1980421
vn -0.4502287 -0.8706741 0.1980421
vn -0.4502287 -0.8706741 0.1980421
vn -0.4502287 -0.8706741 0.1980421
vn -0.4502287 -0.8706741 0.1980421
vn -0.4502287 -0.8706741 0.1980421
vn -0.4502287 -0.8706741 0.1980421
vn -0.4502287 -0.8706741 0.1980421
vn -0.4502287 -0.8706741 0.1980421
vn -0.4502287 -0.8706741 0.1980421
vn -0.4502287 -0.8706741 0.1980421
vn -0.4502287 -0.8706741 0.1980421
vn -0.4502287 -0.8706741 0.1980421
vn -0.4502287 -0.8706741 0.1980421
vn -0.4502287 -0.8706741 0.1980421
vn -0.4502287 -0.8706741 0.1980421
vn -0.4502287 -0.8706741 0.1980421
vn -0.4502287 -0.8706741 0.1980421
vn -0.4502287 -0.8706741 0.1980421
vn -0.4502287 -0.8706741 0.1980421
vn -0.4502287 -0.8706741 0.1980421
vn -0.4502287 -0.8706741 0.1980421
vn -0.4502287 -0.8706741 0.1980421
vn -0.4502287 -0.8706741 0.1980421
vn -0.4502287 -0.8706741 0.1980421
vn -0.4502287 -0.8706741 0.1980421
vn -0.4502287 -0.8706741 0.1980421
vn -0.462144 0.8655641 0.1929292
vn -0.462144 0.8655641 0.1929292
vn -0.462144 0.8655641 0.1929292
vn -0.462144 0.8655641 0.1929292
vn -0.462144 0.8655641 0.1929292
vn -0.462144 0.8655641 0.1929292
vn -0.462144 0.8655641 0.1929292
vn -0.462144 0.8655641 0.1929292
vn -0.462144 0.8655641 0.1929292
vn -0.462144 0.8655641 0.1929292
vn -0.462144 0.8655641 0.1929292
vn -0.462144 0.8655641 0.1929292
vn -0.462144 0.8655641 0.1929292
vn -0.462144 0.8655641 0.1929292
vn -0.462144 0.8655641 0.1929292
vn -0.462144 0.8655641 0.1929292
vn -0.462144 0.8655641 0.1929292
vn -0.462144 0.8655641 0.1929292
vn -0.462144 0.8655641 0.1929292
vn -0.462144 0.8655641 0.1929292
vn -0.462144 0.8655641 0.1929292
vn -0.462144 0.8655641 0.1929292
vn -0.462144 0.8655641 0.1929292
vn -0.462144 0.8655641 0.1929292
vn -0.462144 0.8655641 0.1929292
vn -0.462144 0.8655641 0.1929292
vn -0.462144 0.8655641 0.1929292
vn -0.462144 0.8655641 0.1929292
vn -0.462144 0.8655641 0.1929292
vn -0.462144 0.8655641 0.1929292
vn -0.462144 0.8655641 0.1929292
vn -0.462144 0.8655641 0.1929292
vn -0.462144 0.8655641 0.1929292
vn -0.462144 0.8655641 0.1929292
vn -0.462144 0.8655641 0.1929292
vn -0.462144 0.8655641 0.1929292
vn -0.462144 0.8655641 0.1929292
vn -0.462144 0.8655641 0.1929292
vn -0.462144 0.8655641 0.1929292
vn -0.462144 0.8655641 0.1929292
vn -0.462144 0.8655641 0.1929292
vn -0.462144 0.8655641 0.1929292
vn -0.462144 0.8655641 0.1929292
vn -0.462144 0.8655641 0.1929292
vn -0.462144 0.8655641 0.1929292
vn -0.462144 0.8655641 0.1929292
vn -0.462144 0.8655641 0.1929292
vn -0.462144 0.8655641 0.1929292
vn 0.4638497 -0.8655676 -0.1887756
vn 0.4638497 -0.8655676 -0.1887756
vn 0.4638497 -0.8655676 -0.1887756
vn 0.4638497 -0.8655676 -0.1887756
vn 0.4638497 -0.8655676 -0.1887756
vn 0.4638497 -0.8655676 -0.1887756
vn 0.4638497 -0.8655676 -0.1887756
vn 0.4638497 -0.8655676 -0.1887756
vn 0.4638497 -0.8655676 -0.1887756
vn 0.4638497 -0.8655676 -0.1887756
vn 0.4638497 -0.8655676 -0.1887756
vn 0.4638497 -0.8655676 -0.1887756
vn 0.4638497 -0.8655676 -0.1887756
vn 0.4638497 -0.8655676 -0.1887756
vn 0.4638497 -0.8655676 -0.1887756
vn 0.4638497 -0.8655676 -0.1887756
vn 0.4638497 -0.8655676 -0.1887756
vn 0.4638497 -0.8655676 -0.1887756
vn 0.4638497 -0.8655676 -0.1887756
vn 0.4638497 -0.8655676 -0.1887756
vn 0.4638497 -0.8655676 -0.1887756
vn 0.4638497 -0.8655676 -0.1887756
vn 0.4638497 -0.8655676 -0.1887756
vn 0.4638497 -0.8655676 -0.1887756
vn 0.4638497 -0.8655676 -0.1887756
vn 0.4638497 -0.8655676 -0.1887756
vn 0.4638497 -0.8655676 -0.1887756
vn 0.4638497 -0.8655676 -0.1887756
vn 0.4638497 -0.8655676 -0.1887756
vn 0.4638497 -0.8655676 -0.1887756
vn 0.4638497 -0.8655676 -0.1887756
vn 0.4638497 -0.8655676 -0.1887756
vn 0.4638497 -0.8655676 -0.1887756
vn 0.4638497 -0.8655676 -0.1887756
vn 0.4638497 -0.8655676 -0.1887756
vn 0.4638497 -0.8655676 -0.1887756
vn 0.4638497 -0.8655676 -0.1887756
vn 0.4638497 -0.8655676 -0.1887756
vn 0.4638497 -0.8655676 -0.1887756
vn 0.4638497 -0.8655676 -0.1887756
vn 0.4638497 -0.8655676 -0.1887756
vn 0.4638497 -0.8655676 -0.1887756
vn 0.4638497 -0.8655676 -0.1887756
vn 0.4638497 -0.8655676 -0.1887756
vn 0.4638497 -0.8655676 -0.1887756
vn 0.4638497 -0.8655676 -0.1887756
vn 0.4638497 -0.8655676 -0.1887756
vn 0.4638497 -0.8655676 -0.1887756
g Combined_M_Cmn_ami01_Prefab_Mesh_0
f 3/3/3 2/2/2 1/1/1
f 4/4/4 1/1/1 2/2/2
f 7/7/7 6/6/6 5/5/5
f 8/8/8 5/5/5 6/6/6
f 11/11/11 10/10/10 9/9/9
f 12/12/12 9/9/9 10/10/10
f 15/15/15 14/14/14 13/13/13
f 16/16/16 13/13/13 14/14/14
f 19/19/19 18/18/18 17/17/17
f 20/20/20 17/17/17 18/18/18
f 23/23/23 22/22/22 21/21/21
f 24/24/24 21/21/21 22/22/22
f 27/27/27 26/26/26 25/25/25
f 28/28/28 25/25/25 26/26/26
f 31/31/31 30/30/30 29/29/29
f 32/32/32 29/29/29 30/30/30
f 35/35/35 34/34/34 33/33/33
f 33/33/33 36/36/36 35/35/35
f 39/39/39 38/38/38 37/37/37
f 37/37/37 40/40/40 39/39/39
f 43/43/43 42/42/42 41/41/41
f 41/41/41 44/44/44 43/43/43
f 47/47/47 46/46/46 45/45/45
f 45/45/45 48/48/48 47/47/47
f 51/51/51 50/50/50 49/49/49
f 49/49/49 52/52/52 51/51/51
f 55/55/55 54/54/54 53/53/53
f 53/53/53 56/56/56 55/55/55
f 59/59/59 58/58/58 57/57/57
f 57/57/57 60/60/60 59/59/59
f 63/63/63 62/62/62 61/61/61
f 61/61/61 64/64/64 63/63/63
f 67/67/67 66/66/66 65/65/65
f 68/68/68 65/65/65 66/66/66
f 71/71/71 70/70/70 69/69/69
f 72/72/72 69/69/69 70/70/70
f 75/75/75 74/74/74 73/73/73
f 76/76/76 73/73/73 74/74/74
f 79/79/79 78/78/78 77/77/77
f 80/80/80 77/77/77 78/78/78
f 83/83/83 82/82/82 81/81/81
f 84/84/84 81/81/81 82/82/82
f 87/87/87 86/86/86 85/85/85
f 88/88/88 85/85/85 86/86/86
f 91/91/91 90/90/90 89/89/89
f 92/92/92 89/89/89 90/90/90
f 95/95/95 94/94/94 93/93/93
f 96/96/96 93/93/93 94/94/94
f 99/99/99 98/98/98 97/97/97
f 100/100/100 97/97/97 98/98/98
f 103/103/103 102/102/102 101/101/101
f 104/104/104 101/101/101 102/102/102
f 107/107/107 106/106/106 105/105/105
f 105/105/105 108/108/108 107/107/107
f 111/111/111 110/110/110 109/109/109
f 109/109/109 112/112/112 111/111/111
f 115/115/115 114/114/114 113/113/113
f 113/113/113 116/116/116 115/115/115
f 119/119/119 118/118/118 117/117/117
f 117/117/117 120/120/120 119/119/119
f 123/123/123 122/122/122 121/121/121
f 121/121/121 124/124/124 123/123/123
f 127/127/127 126/126/126 125/125/125
f 125/125/125 128/128/128 127/127/127
f 131/131/131 130/130/130 129/129/129
f 129/129/129 132/132/132 131/131/131
f 135/135/135 134/134/134 133/133/133
f 133/133/133 136/136/136 135/135/135
f 139/139/139 138/138/138 137/137/137
f 137/137/137 140/140/140 139/139/139
f 143/143/143 142/142/142 141/141/141
f 141/141/141 144/144/144 143/143/143
f 147/147/147 146/146/146 145/145/145
f 148/148/148 145/145/145 146/146/146
f 151/151/151 150/150/150 149/149/149
f 152/152/152 149/149/149 150/150/150
f 155/155/155 154/154/154 153/153/153
f 156/156/156 153/153/153 154/154/154
f 159/159/159 158/158/158 157/157/157
f 160/160/160 157/157/157 158/158/158
f 163/163/163 162/162/162 161/161/161
f 164/164/164 161/161/161 162/162/162
f 167/167/167 166/166/166 165/165/165
f 168/168/168 165/165/165 166/166/166
f 171/171/171 170/170/170 169/169/169
f 172/172/172 169/169/169 170/170/170
f 175/175/175 174/174/174 173/173/173
f 176/176/176 173/173/173 174/174/174
f 179/179/179 178/178/178 177/177/177
f 180/180/180 177/177/177 178/178/178
f 183/183/183 182/182/182 181/181/181
f 184/184/184 181/181/181 182/182/182
f 187/187/187 186/186/186 185/185/185
f 188/188/188 185/185/185 186/186/186
f 191/191/191 190/190/190 189/189/189
f 192/192/192 189/189/189 190/190/190
f 195/195/195 194/194/194 193/193/193
f 193/193/193 196/196/196 195/195/195
f 199/199/199 198/198/198 197/197/197
f 197/197/197 200/200/200 199/199/199
f 203/203/203 202/202/202 201/201/201
f 201/201/201 204/204/204 203/203/203
f 207/207/207 206/206/206 205/205/205
f 205/205/205 208/208/208 207/207/207
f 211/211/211 210/210/210 209/209/209
f 209/209/209 212/212/212 211/211/211
f 215/215/215 214/214/214 213/213/213
f 213/213/213 216/216/216 215/215/215
f 219/219/219 218/218/218 217/217/217
f 217/217/217 220/220/220 219/219/219
f 223/223/223 222/222/222 221/221/221
f 221/221/221 224/224/224 223/223/223
f 227/227/227 226/226/226 225/225/225
f 225/225/225 228/228/228 227/227/227
f 231/231/231 230/230/230 229/229/229
f 229/229/229 232/232/232 231/231/231
f 235/235/235 234/234/234 233/233/233
f 233/233/233 236/236/236 235/235/235
f 239/239/239 238/238/238 237/237/237
f 237/237/237 240/240/240 239/239/239
