g Combined_M_Cmn_ami01_Prefab_Mesh
v -72.41391 192.0772 -139.4227
v -75.70732 187.7646 -128.3085
v -79.35049 187.7646 -136.235
v -68.77115 192.0772 -131.4962
v -75.70732 187.7646 -128.3085
v -65.1284 192.0772 -123.5694
v -72.06458 187.7646 -120.3816
v -68.77115 192.0772 -131.4962
v -80.66931 186.9446 -135.6284
v -83.96315 182.632 -124.5142
v -87.60591 182.632 -132.4407
v -77.02655 186.9446 -127.7019
v -83.96315 182.632 -124.5142
v -73.3838 186.9446 -119.7755
v -80.31998 182.632 -116.5878
v -77.02655 186.9446 -127.7019
v -88.92514 181.812 -131.8345
v -92.21814 177.4998 -120.7204
v -95.86131 177.4998 -128.6468
v -85.28197 181.812 -123.9081
v -92.21814 177.4998 -120.7204
v -81.63921 181.812 -115.9812
v -88.57538 177.4998 -112.7935
v -85.28197 181.812 -123.9081
v -97.18013 176.6793 -128.0402
v -100.474 172.3668 -116.9261
v -104.1167 172.3668 -124.8525
v -93.53737 176.6793 -120.1138
v -100.474 172.3668 -116.9261
v -89.89462 176.6793 -112.1873
v -96.8308 172.3668 -108.9996
v -93.53737 176.6793 -120.1138
v -105.436 171.5467 -124.2464
v -108.729 167.2342 -113.1322
v -112.3721 167.2342 -121.0587
v -101.7928 171.5467 -116.3199
v -108.729 167.2342 -113.1322
v -98.15002 171.5467 -108.3935
v -105.0862 167.2342 -105.2053
v -101.7928 171.5467 -116.3199
v -121.9468 161.2815 -116.6582
v -125.2402 156.9689 -105.5441
v -128.8829 156.9689 -113.4705
v -118.3036 161.2815 -108.7318
v -125.2402 156.9689 -105.5441
v -114.6608 161.2815 -100.8053
v -121.5974 156.9689 -97.61718
v -118.3036 161.2815 -108.7318
v -71.76277 190.8624 -139.7219
v -78.69894 186.5498 -136.5342
v -75.0562 186.5498 -128.6077
v -68.12003 190.8624 -131.7955
v -75.0562 186.5498 -128.6077
v -71.41344 186.5498 -120.6809
v -64.47684 190.8624 -123.869
v -68.12003 190.8624 -131.7955
v -80.01819 185.7298 -135.9276
v -86.95436 181.4172 -132.7399
v -83.3116 181.4172 -124.8135
v -76.37543 185.7298 -128.0016
v -83.3116 181.4172 -124.8135
v -79.66843 181.4172 -116.887
v -72.73225 185.7298 -120.0747
v -76.37543 185.7298 -128.0016
v -88.27359 180.5971 -132.1338
v -95.20976 176.2846 -128.946
v -91.567 176.2846 -121.0196
v -84.63083 180.5971 -124.2073
v -91.567 176.2846 -121.0196
v -87.92426 176.2846 -113.0932
v -80.98766 180.5971 -116.2809
v -84.63083 180.5971 -124.2073
v -96.52899 175.4645 -128.3399
v -103.4652 171.1519 -125.1518
v -99.82242 171.1519 -117.2253
v -92.88625 175.4645 -120.4135
v -99.82242 171.1519 -117.2253
v -96.17966 171.1519 -109.2989
v -89.24307 175.4645 -112.4866
v -92.88625 175.4645 -120.4135
v -104.7844 170.3319 -124.5456
v -111.7206 166.0193 -121.3579
v -108.0778 166.0193 -113.4314
v -101.1416 170.3319 -116.6192
v -108.0778 166.0193 -113.4314
v -104.4351 166.0193 -105.505
v -97.49847 170.3319 -108.6927
v -101.1416 170.3319 -116.6192
v -121.2952 160.0667 -116.9575
v -128.2314 155.7541 -113.7697
v -124.5886 155.7541 -105.8433
v -117.6525 160.0667 -109.031
v -124.5886 155.7541 -105.8433
v -120.9459 155.7541 -97.91685
v -114.0093 160.0667 -101.1046
v -117.6525 160.0667 -109.031
v -113.0398 165.1993 -120.7518
v -119.9764 160.8867 -117.5636
v -116.3332 160.8867 -109.6372
v -109.3971 165.1993 -112.8253
v -116.3332 160.8867 -109.6372
v -112.6905 160.8867 -101.7107
v -105.7539 165.1993 -104.8984
v -109.3971 165.1993 -112.8253
v -113.6909 166.4141 -120.4521
v -116.9848 162.1015 -109.3379
v -120.6275 162.1015 -117.2644
v -110.0482 166.4141 -112.5256
v -116.9848 162.1015 -109.3379
v -106.4054 166.4141 -104.5992
v -113.3416 162.1015 -101.4115
v -110.0482 166.4141 -112.5256
v -169.0067 170.7737 259.7776
v -174.3991 170.7737 276.1551
v -179.7092 170.7737 264.768
v -163.6967 170.7737 271.1642
v -174.3991 170.7737 276.1551
v -158.387 170.7737 282.5514
v -169.0895 170.7737 287.5418
v -163.6967 170.7737 271.1642
v -181.7445 170.7737 265.7171
v -187.1369 170.7737 282.0946
v -192.4465 170.7737 270.7075
v -176.4344 170.7737 277.1042
v -187.1369 170.7737 282.0946
v -171.1248 170.7737 288.4909
v -181.8268 170.7737 293.4817
v -176.4344 170.7737 277.1042
v -194.4818 170.7737 271.6566
v -199.8742 170.7737 288.0341
v -205.1842 170.7737 276.6471
v -189.1721 170.7737 283.0437
v -199.8742 170.7737 288.0341
v -183.8621 170.7737 294.4308
v -194.5645 170.7737 299.4213
v -189.1721 170.7737 283.0437
v -207.2195 170.7737 277.5962
v -212.6119 170.7737 293.9737
v -217.9216 170.7737 282.5866
v -201.9095 170.7737 288.9832
v -212.6119 170.7737 293.9737
v -196.5999 170.7737 300.3704
v -207.3019 170.7737 305.3608
v -201.9095 170.7737 288.9832
v -181.7445 168.7936 265.7171
v -192.4465 168.7936 270.7075
v -187.1369 168.7936 282.0946
v -176.4344 168.7936 277.1042
v -187.1369 168.7936 282.0946
v -181.8268 168.7936 293.4817
v -171.1248 168.7936 288.4909
v -176.4344 168.7936 277.1042
v -169.0067 168.7936 259.7776
v -179.7092 168.7936 264.768
v -174.3991 168.7936 276.1551
v -163.6967 168.7936 271.1642
v -174.3991 168.7936 276.1551
v -169.0895 168.7936 287.5418
v -158.387 168.7936 282.5514
v -163.6967 168.7936 271.1642
v -194.4818 168.7936 271.6566
v -205.1842 168.7936 276.6471
v -199.8742 168.7936 288.0341
v -189.1721 168.7936 283.0437
v -199.8742 168.7936 288.0341
v -194.5645 168.7936 299.4213
v -183.8621 168.7936 294.4308
v -189.1721 168.7936 283.0437
v -207.2195 168.7936 277.5962
v -217.9216 168.7936 282.5866
v -212.6119 168.7936 293.9737
v -201.9095 168.7936 288.9832
v -212.6119 168.7936 293.9737
v -207.3019 168.7936 305.3608
v -196.5999 168.7936 300.3704
v -201.9095 168.7936 288.9832
v -98.58807 118.8834 223.9184
v -102.0895 128.0837 242.3546
v -108.5256 128.0837 228.5523
v -92.15192 118.8834 237.7207
v -102.0895 128.0837 242.3546
v -85.71576 118.8834 251.523
v -95.65332 128.0841 256.1573
v -92.15192 118.8834 237.7207
v -110.4153 129.8337 229.4335
v -113.9167 139.034 247.8696
v -120.3529 139.034 234.0673
v -103.9792 129.8337 243.2358
v -113.9167 139.034 247.8696
v -97.54305 129.8337 257.0385
v -107.4806 139.034 261.6724
v -103.9792 129.8337 243.2358
v -122.2426 140.7837 234.9485
v -125.744 149.9843 253.3851
v -132.1802 149.9843 239.5824
v -115.8065 140.7837 248.7508
v -125.744 149.9843 253.3851
v -109.3703 140.7837 262.5536
v -119.3079 149.9843 267.1874
v -115.8065 140.7837 248.7508
v -134.0699 151.734 240.4636
v -137.5713 160.9347 258.9002
v -144.0074 160.9347 245.0979
v -127.6338 151.734 254.2663
v -137.5713 160.9347 258.9002
v -121.1976 151.734 268.0686
v -131.1352 160.9347 272.7025
v -127.6338 151.734 254.2663
v -145.8972 162.6843 245.9791
v -149.3986 171.885 264.4153
v -155.8347 171.885 250.6129
v -139.461 162.6843 259.7814
v -149.3986 171.885 264.4153
v -133.0249 162.6843 273.5837
v -142.9624 171.885 278.218
v -139.461 162.6843 259.7814
v -111.8135 127.995 230.0854
v -121.7511 137.1956 234.7193
v -115.3149 137.1956 248.5216
v -105.3774 127.995 243.8878
v -115.3149 137.1956 248.5216
v -108.8788 137.1956 262.3243
v -98.94122 127.995 257.6905
v -105.3774 127.995 243.8878
v -99.98625 117.045 224.5704
v -109.9238 126.2453 229.2043
v -103.4877 126.2453 243.0066
v -93.55011 117.045 238.3727
v -103.4877 126.2453 243.0066
v -97.05151 126.2453 256.8093
v -87.11395 117.045 252.175
v -93.55011 117.045 238.3727
v -123.6408 138.9453 235.6005
v -133.5784 148.146 240.2344
v -127.1422 148.146 254.0371
v -117.2047 138.9453 249.4032
v -127.1422 148.146 254.0371
v -120.7061 148.146 267.8394
v -110.7685 138.9453 263.2055
v -117.2047 138.9453 249.4032
v -135.4681 149.8956 241.1156
v -145.4056 159.0963 245.7499
v -138.9695 159.0959 259.5522
v -129.0319 149.8956 254.9183
v -138.9695 159.0959 259.5522
v -132.5333 159.0963 273.3545
v -122.5958 149.8956 268.7206
v -129.0319 149.8956 254.9183
v -147.2953 160.8459 246.631
v -157.2329 170.0462 251.2649
v -150.7968 170.0462 265.0672
v -140.8592 160.8459 260.4333
v -150.7968 170.0462 265.0672
v -144.3606 170.0462 278.8695
v -134.4231 160.8459 274.2357
v -140.8592 160.8459 260.4333
vt -1.5 2.5
vt 2.5 -1.5
vt 2.5 2.5
vt -1.5 -1.5
vt -1.5 2.5
vt 2.5 -1.5
vt 2.5 2.5
vt -1.5 -1.5
vt -1.5 2.5
vt 2.5 -1.5
vt 2.5 2.5
vt -1.5 -1.5
vt -1.5 2.5
vt 2.5 -1.5
vt 2.5 2.5
vt -1.5 -1.5
vt -1.5 2.5
vt 2.5 -1.5
vt 2.5 2.5
vt -1.5 -1.5
vt -1.5 2.5
vt 2.5 -1.5
vt 2.5 2.5
vt -1.5 -1.5
vt -1.5 2.5
vt 2.5 -1.5
vt 2.5 2.5
vt -1.5 -1.5
vt -1.5 2.5
vt 2.5 -1.5
vt 2.5 2.5
vt -1.5 -1.5
vt -1.5 2.5
vt 2.5 -1.5
vt 2.5 2.5
vt -1.5 -1.5
vt -1.5 2.5
vt 2.5 -1.5
vt 2.5 2.5
vt -1.5 -1.5
vt -1.5 2.5
vt 2.5 -1.5
vt 2.5 2.5
vt -1.5 -1.5
vt -1.5 2.5
vt 2.5 -1.5
vt 2.5 2.5
vt -1.5 -1.5
vt -1.5 2.5
vt 2.5 2.5
vt 2.5 -1.5
vt -1.5 -1.5
vt -1.5 2.5
vt 2.5 2.5
vt 2.5 -1.5
vt -1.5 -1.5
vt -1.5 2.5
vt 2.5 2.5
vt 2.5 -1.5
vt -1.5 -1.5
vt -1.5 2.5
vt 2.5 2.5
vt 2.5 -1.5
vt -1.5 -1.5
vt -1.5 2.5
vt 2.5 2.5
vt 2.5 -1.5
vt -1.5 -1.5
vt -1.5 2.5
vt 2.5 2.5
vt 2.5 -1.5
vt -1.5 -1.5
vt -1.5 2.5
vt 2.5 2.5
vt 2.5 -1.5
vt -1.5 -1.5
vt -1.5 2.5
vt 2.5 2.5
vt 2.5 -1.5
vt -1.5 -1.5
vt -1.5 2.5
vt 2.5 2.5
vt 2.5 -1.5
vt -1.5 -1.5
vt -1.5 2.5
vt 2.5 2.5
vt 2.5 -1.5
vt -1.5 -1.5
vt -1.5 2.5
vt 2.5 2.5
vt 2.5 -1.5
vt -1.5 -1.5
vt -1.5 2.5
vt 2.5 2.5
vt 2.5 -1.5
vt -1.5 -1.5
vt -1.5 2.5
vt 2.5 2.5
vt 2.5 -1.5
vt -1.5 -1.5
vt -1.5 2.5
vt 2.5 2.5
vt 2.5 -1.5
vt -1.5 -1.5
vt -1.5 2.5
vt 2.5 -1.5
vt 2.5 2.5
vt -1.5 -1.5
vt -1.5 2.5
vt 2.5 -1.5
vt 2.5 2.5
vt -1.5 -1.5
vt -1.5 2.5
vt 2.5 -1.5
vt 2.5 2.5
vt -1.5 -1.5
vt -1.5 2.5
vt 2.5 -1.5
vt 2.5 2.5
vt -1.5 -1.5
vt -1.5 2.5
vt 2.5 -1.5
vt 2.5 2.5
vt -1.5 -1.5
vt -1.5 2.5
vt 2.5 -1.5
vt 2.5 2.5
vt -1.5 -1.5
vt -1.5 2.5
vt 2.5 -1.5
vt 2.5 2.5
vt -1.5 -1.5
vt -1.5 2.5
vt 2.5 -1.5
vt 2.5 2.5
vt -1.5 -1.5
vt -1.5 2.5
vt 2.5 -1.5
vt 2.5 2.5
vt -1.5 -1.5
vt -1.5 2.5
vt 2.5 -1.5
vt 2.5 2.5
vt -1.5 -1.5
vt -1.5 2.5
vt 2.5 2.5
vt 2.5 -1.5
vt -1.5 -1.5
vt -1.5 2.5
vt 2.5 2.5
vt 2.5 -1.5
vt -1.5 -1.5
vt -1.5 2.5
vt 2.5 2.5
vt 2.5 -1.5
vt -1.5 -1.5
vt -1.5 2.5
vt 2.5 2.5
vt 2.5 -1.5
vt -1.5 -1.5
vt -1.5 2.5
vt 2.5 2.5
vt 2.5 -1.5
vt -1.5 -1.5
vt -1.5 2.5
vt 2.5 2.5
vt 2.5 -1.5
vt -1.5 -1.5
vt -1.5 2.5
vt 2.5 2.5
vt 2.5 -1.5
vt -1.5 -1.5
vt -1.5 2.5
vt 2.5 2.5
vt 2.5 -1.5
vt -1.5 -1.5
vt -1.5 2.5
vt 2.5 -1.5
vt 2.5 2.5
vt -1.5 -1.5
vt -1.5 2.5
vt 2.5 -1.5
vt 2.5 2.5
vt -1.5 -1.5
vt -1.5 2.5
vt 2.5 -1.5
vt 2.5 2.5
vt -1.5 -1.5
vt -1.5 2.5
vt 2.5 -1.5
vt 2.5 2.5
vt -1.5 -1.5
vt -1.5 2.5
vt 2.5 -1.5
vt 2.5 2.5
vt -1.5 -1.5
vt -1.5 2.5
vt 2.5 -1.5
vt 2.5 2.5
vt -1.5 -1.5
vt -1.5 2.5
vt 2.5 -1.5
vt 2.5 2.5
vt -1.5 -1.5
vt -1.5 2.5
vt 2.5 -1.5
vt 2.5 2.5
vt -1.5 -1.5
vt -1.5 2.5
vt 2.5 -1.5
vt 2.5 2.5
vt -1.5 -1.5
vt -1.5 2.5
vt 2.5 -1.5
vt 2.5 2.5
vt -1.5 -1.5
vt -1.5 2.5
vt 2.5 2.5
vt 2.5 -1.5
vt -1.5 -1.5
vt -1.5 2.5
vt 2.5 2.5
vt 2.5 -1.5
vt -1.5 -1.5
vt -1.5 2.5
vt 2.5 2.5
vt 2.5 -1.5
vt -1.5 -1.5
vt -1.5 2.5
vt 2.5 2.5
vt 2.5 -1.5
vt -1.5 -1.5
vt -1.5 2.5
vt 2.5 2.5
vt 2.5 -1.5
vt -1.5 -1.5
vt -1.5 2.5
vt 2.5 2.5
vt 2.5 -1.5
vt -1.5 -1.5
vt -1.5 2.5
vt 2.5 2.5
vt 2.5 -1.5
vt -1.5 -1.5
vt -1.5 2.5
vt 2.5 2.5
vt 2.5 -1.5
vt -1.5 -1.5
vt -1.5 2.5
vt 2.5 2.5
vt 2.5 -1.5
vt -1.5 -1.5
vt -1.5 2.5
vt 2.5 2.5
vt 2.5 -1.5
vt -1.5 -1.5
vn -0.4467251 0.8709673 0.2045794
vn -0.4467251 0.8709673 0.2045794
vn -0.4467251 0.8709673 0.2045794
vn -0.4467251 0.8709673 0.2045794
vn -0.4467251 0.8709673 0.2045794
vn -0.4467251 0.8709673 0.2045794
vn -0.4467251 0.8709673 0.2045794
vn -0.4467251 0.8709673 0.2045794
vn -0.4467251 0.8709673 0.2045794
vn -0.4467251 0.8709673 0.2045794
vn -0.4467251 0.8709673 0.2045794
vn -0.4467251 0.8709673 0.2045794
vn -0.4467251 0.8709673 0.2045794
vn -0.4467251 0.8709673 0.2045794
vn -0.4467251 0.8709673 0.2045794
vn -0.4467251 0.8709673 0.2045794
vn -0.4467251 0.8709673 0.2045794
vn -0.4467251 0.8709673 0.2045794
vn -0.4467251 0.8709673 0.2045794
vn -0.4467251 0.8709673 0.2045794
vn -0.4467251 0.8709673 0.2045794
vn -0.4467251 0.8709673 0.2045794
vn -0.4467251 0.8709673 0.2045794
vn -0.4467251 0.8709673 0.2045794
vn -0.4467251 0.8709673 0.2045794
vn -0.4467251 0.8709673 0.2045794
vn -0.4467251 0.8709673 0.2045794
vn -0.4467251 0.8709673 0.2045794
vn -0.4467251 0.8709673 0.2045794
vn -0.4467251 0.8709673 0.2045794
vn -0.4467251 0.8709673 0.2045794
vn -0.4467251 0.8709673 0.2045794
vn -0.4467251 0.8709673 0.2045794
vn -0.4467251 0.8709673 0.2045794
vn -0.4467251 0.8709673 0.2045794
vn -0.4467251 0.8709673 0.2045794
vn -0.4467251 0.8709673 0.2045794
vn -0.4467251 0.8709673 0.2045794
vn -0.4467251 0.8709673 0.2045794
vn -0.4467251 0.8709673 0.2045794
vn -0.4467251 0.8709673 0.2045794
vn -0.4467251 0.8709673 0.2045794
vn -0.4467251 0.8709673 0.2045794
vn -0.4467251 0.8709673 0.2045794
vn -0.4467251 0.8709673 0.2045794
vn -0.4467251 0.8709673 0.2045794
vn -0.4467251 0.8709673 0.2045794
vn -0.4467251 0.8709673 0.2045794
vn 0.4467251 -0.8709673 -0.2045791
vn 0.4467251 -0.8709673 -0.2045791
vn 0.4467251 -0.8709673 -0.2045791
vn 0.4467251 -0.8709673 -0.2045791
vn 0.4467251 -0.8709673 -0.2045791
vn 0.4467251 -0.8709673 -0.2045791
vn 0.4467251 -0.8709673 -0.2045791
vn 0.4467251 -0.8709673 -0.2045791
vn 0.4467251 -0.8709673 -0.2045791
vn 0.4467251 -0.8709673 -0.2045791
vn 0.4467251 -0.8709673 -0.2045791
vn 0.4467251 -0.8709673 -0.2045791
vn 0.4467251 -0.8709673 -0.2045791
vn 0.4467251 -0.8709673 -0.2045791
vn 0.4467251 -0.8709673 -0.2045791
vn 0.4467251 -0.8709673 -0.2045791
vn 0.4467251 -0.8709673 -0.2045791
vn 0.4467251 -0.8709673 -0.2045791
vn 0.4467251 -0.8709673 -0.2045791
vn 0.4467251 -0.8709673 -0.2045791
vn 0.4467251 -0.8709673 -0.2045791
vn 0.4467251 -0.8709673 -0.2045791
vn 0.4467251 -0.8709673 -0.2045791
vn 0.4467251 -0.8709673 -0.2045791
vn 0.4467251 -0.8709673 -0.2045791
vn 0.4467251 -0.8709673 -0.2045791
vn 0.4467251 -0.8709673 -0.2045791
vn 0.4467251 -0.8709673 -0.2045791
vn 0.4467251 -0.8709673 -0.2045791
vn 0.4467251 -0.8709673 -0.2045791
vn 0.4467251 -0.8709673 -0.2045791
vn 0.4467251 -0.8709673 -0.2045791
vn 0.4467251 -0.8709673 -0.2045791
vn 0.4467251 -0.8709673 -0.2045791
vn 0.4467251 -0.8709673 -0.2045791
vn 0.4467251 -0.8709673 -0.2045791
vn 0.4467251 -0.8709673 -0.2045791
vn 0.4467251 -0.8709673 -0.2045791
vn 0.4467251 -0.8709673 -0.2045791
vn 0.4467251 -0.8709673 -0.2045791
vn 0.4467251 -0.8709673 -0.2045791
vn 0.4467251 -0.8709673 -0.2045791
vn 0.4467251 -0.8709673 -0.2045791
vn 0.4467251 -0.8709673 -0.2045791
vn 0.4467251 -0.8709673 -0.2045791
vn 0.4467251 -0.8709673 -0.2045791
vn 0.4467251 -0.8709673 -0.2045791
vn 0.4467251 -0.8709673 -0.2045791
vn 0.4467251 -0.8709673 -0.2045791
vn 0.4467251 -0.8709673 -0.2045791
vn 0.4467251 -0.8709673 -0.2045791
vn 0.4467251 -0.8709673 -0.2045791
vn 0.4467251 -0.8709673 -0.2045791
vn 0.4467251 -0.8709673 -0.2045791
vn 0.4467251 -0.8709673 -0.2045791
vn 0.4467251 -0.8709673 -0.2045791
vn -0.4467251 0.8709673 0.2045794
vn -0.4467251 0.8709673 0.2045794
vn -0.4467251 0.8709673 0.2045794
vn -0.4467251 0.8709673 0.2045794
vn -0.4467251 0.8709673 0.2045794
vn -0.4467251 0.8709673 0.2045794
vn -0.4467251 0.8709673 0.2045794
vn -0.4467251 0.8709673 0.2045794
vn -0.0009775162 0.9999995 0
vn -0.0009775162 0.9999995 0
vn -0.0009775162 0.9999995 0
vn -0.0009775162 0.9999995 0
vn -0.0009775162 0.9999995 0
vn -0.0009775162 0.9999995 0
vn -0.0009775162 0.9999995 0
vn -0.0009775162 0.9999995 0
vn -0.0009775162 0.9999995 0
vn -0.0009775162 0.9999995 0
vn -0.0009775162 0.9999995 0
vn -0.0009775162 0.9999995 0
vn -0.0009775162 0.9999995 0
vn -0.0009775162 0.9999995 0
vn -0.0009775162 0.9999995 0
vn -0.0009775162 0.9999995 0
vn -0.0009775162 0.9999995 0
vn -0.0009775162 0.9999995 0
vn -0.0009775162 0.9999995 0
vn -0.0009775162 0.9999995 0
vn -0.0009775162 0.9999995 0
vn -0.0009775162 0.9999995 0
vn -0.0009775162 0.9999995 0
vn -0.0009775162 0.9999995 0
vn -0.0009775162 0.9999995 0
vn -0.0009775162 0.9999995 0
vn -0.0009775162 0.9999995 0
vn -0.0009775162 0.9999995 0
vn -0.0009775162 0.9999995 0
vn -0.0009775162 0.9999995 0
vn -0.0009775162 0.9999995 0
vn -0.0009775162 0.9999995 0
vn -0.0009775162 -0.9999995 0
vn -0.0009775162 -0.9999995 0
vn -0.0009775162 -0.9999995 0
vn -0.0009775162 -0.9999995 0
vn -0.0009775162 -0.9999995 0
vn -0.0009775162 -0.9999995 0
vn -0.0009775162 -0.9999995 0
vn -0.0009775162 -0.9999995 0
vn -0.0009775162 -0.9999995 0
vn -0.0009775162 -0.9999995 0
vn -0.0009775162 -0.9999995 0
vn -0.0009775162 -0.9999995 0
vn -0.0009775162 -0.9999995 0
vn -0.0009775162 -0.9999995 0
vn -0.0009775162 -0.9999995 0
vn -0.0009775162 -0.9999995 0
vn -0.0009775162 -0.9999995 0
vn -0.0009775162 -0.9999995 0
vn -0.0009775162 -0.9999995 0
vn -0.0009775162 -0.9999995 0
vn -0.0009775162 -0.9999995 0
vn -0.0009775162 -0.9999995 0
vn -0.0009775162 -0.9999995 0
vn -0.0009775162 -0.9999995 0
vn -0.0009775162 -0.9999995 0
vn -0.0009775162 -0.9999995 0
vn -0.0009775162 -0.9999995 0
vn -0.0009775162 -0.9999995 0
vn -0.0009775162 -0.9999995 0
vn -0.0009775162 -0.9999995 0
vn -0.0009775162 -0.9999995 0
vn -0.0009775162 -0.9999995 0
vn 0.5816224 0.7653955 -0.2754724
vn 0.5816224 0.7653955 -0.2754724
vn 0.5816224 0.7653955 -0.2754724
vn 0.5816224 0.7653955 -0.2754724
vn 0.5816224 0.7653955 -0.2754724
vn 0.5816224 0.7653955 -0.2754724
vn 0.5816224 0.7653955 -0.2754724
vn 0.5816224 0.7653955 -0.2754724
vn 0.5816224 0.7653955 -0.2754724
vn 0.5816224 0.7653955 -0.2754724
vn 0.5816224 0.7653955 -0.2754724
vn 0.5816224 0.7653955 -0.2754724
vn 0.5816224 0.7653955 -0.2754724
vn 0.5816224 0.7653955 -0.2754724
vn 0.5816224 0.7653955 -0.2754724
vn 0.5816224 0.7653955 -0.2754724
vn 0.5816224 0.7653955 -0.2754724
vn 0.5816224 0.7653955 -0.2754724
vn 0.5816224 0.7653955 -0.2754724
vn 0.5816224 0.7653955 -0.2754724
vn 0.5816224 0.7653955 -0.2754724
vn 0.5816224 0.7653955 -0.2754724
vn 0.5816224 0.7653955 -0.2754724
vn 0.5816224 0.7653955 -0.2754724
vn 0.5816224 0.7653955 -0.2754724
vn 0.5816224 0.7653955 -0.2754724
vn 0.5816224 0.7653955 -0.2754724
vn 0.5816224 0.7653955 -0.2754724
vn 0.5816224 0.7653955 -0.2754724
vn 0.5816224 0.7653955 -0.2754724
vn 0.5816224 0.7653955 -0.2754724
vn 0.5816224 0.7653955 -0.2754724
vn 0.5816224 0.7653955 -0.2754724
vn 0.5816224 0.7653955 -0.2754724
vn 0.5816224 0.7653955 -0.2754724
vn 0.5816224 0.7653955 -0.2754724
vn 0.5816224 0.7653955 -0.2754724
vn 0.5816224 0.7653955 -0.2754724
vn 0.5816224 0.7653955 -0.2754724
vn 0.5816224 0.7653955 -0.2754724
vn -0.5835774 -0.7653955 0.2713062
vn -0.5835774 -0.7653955 0.2713062
vn -0.5835774 -0.7653955 0.2713062
vn -0.5835774 -0.7653955 0.2713062
vn -0.5835774 -0.7653955 0.2713062
vn -0.5835774 -0.7653955 0.2713062
vn -0.5835774 -0.7653955 0.2713062
vn -0.5835774 -0.7653955 0.2713062
vn -0.5835774 -0.7653955 0.2713062
vn -0.5835774 -0.7653955 0.2713062
vn -0.5835774 -0.7653955 0.2713062
vn -0.5835774 -0.7653955 0.2713062
vn -0.5835774 -0.7653955 0.2713062
vn -0.5835774 -0.7653955 0.2713062
vn -0.5835774 -0.7653955 0.2713062
vn -0.5835774 -0.7653955 0.2713062
vn -0.5835774 -0.7653955 0.2713062
vn -0.5835774 -0.7653955 0.2713062
vn -0.5835774 -0.7653955 0.2713062
vn -0.5835774 -0.7653955 0.2713062
vn -0.5835774 -0.7653955 0.2713062
vn -0.5835774 -0.7653955 0.2713062
vn -0.5835774 -0.7653955 0.2713062
vn -0.5835774 -0.7653955 0.2713062
vn -0.5835774 -0.7653955 0.2713062
vn -0.5835774 -0.7653955 0.2713062
vn -0.5835774 -0.7653955 0.2713062
vn -0.5835774 -0.7653955 0.2713062
vn -0.5835774 -0.7653955 0.2713062
vn -0.5835774 -0.7653955 0.2713062
vn -0.5835774 -0.7653955 0.2713062
vn -0.5835774 -0.7653955 0.2713062
vn -0.5835774 -0.7653955 0.2713062
vn -0.5835774 -0.7653955 0.2713062
vn -0.5835774 -0.7653955 0.2713062
vn -0.5835774 -0.7653955 0.2713062
vn -0.5835774 -0.7653955 0.2713062
vn -0.5835774 -0.7653955 0.2713062
vn -0.5835774 -0.7653955 0.2713062
vn -0.5835774 -0.7653955 0.2713062
g Combined_M_Cmn_ami01_Prefab_Mesh_0
f 3/3/3 2/2/2 1/1/1
f 4/4/4 1/1/1 2/2/2
f 7/7/7 6/6/6 5/5/5
f 8/8/8 5/5/5 6/6/6
f 11/11/11 10/10/10 9/9/9
f 12/12/12 9/9/9 10/10/10
f 15/15/15 14/14/14 13/13/13
f 16/16/16 13/13/13 14/14/14
f 19/19/19 18/18/18 17/17/17
f 20/20/20 17/17/17 18/18/18
f 23/23/23 22/22/22 21/21/21
f 24/24/24 21/21/21 22/22/22
f 27/27/27 26/26/26 25/25/25
f 28/28/28 25/25/25 26/26/26
f 31/31/31 30/30/30 29/29/29
f 32/32/32 29/29/29 30/30/30
f 35/35/35 34/34/34 33/33/33
f 36/36/36 33/33/33 34/34/34
f 39/39/39 38/38/38 37/37/37
f 40/40/40 37/37/37 38/38/38
f 43/43/43 42/42/42 41/41/41
f 44/44/44 41/41/41 42/42/42
f 47/47/47 46/46/46 45/45/45
f 48/48/48 45/45/45 46/46/46
f 51/51/51 50/50/50 49/49/49
f 49/49/49 52/52/52 51/51/51
f 55/55/55 54/54/54 53/53/53
f 53/53/53 56/56/56 55/55/55
f 59/59/59 58/58/58 57/57/57
f 57/57/57 60/60/60 59/59/59
f 63/63/63 62/62/62 61/61/61
f 61/61/61 64/64/64 63/63/63
f 67/67/67 66/66/66 65/65/65
f 65/65/65 68/68/68 67/67/67
f 71/71/71 70/70/70 69/69/69
f 69/69/69 72/72/72 71/71/71
f 75/75/75 74/74/74 73/73/73
f 73/73/73 76/76/76 75/75/75
f 79/79/79 78/78/78 77/77/77
f 77/77/77 80/80/80 79/79/79
f 83/83/83 82/82/82 81/81/81
f 81/81/81 84/84/84 83/83/83
f 87/87/87 86/86/86 85/85/85
f 85/85/85 88/88/88 87/87/87
f 91/91/91 90/90/90 89/89/89
f 89/89/89 92/92/92 91/91/91
f 95/95/95 94/94/94 93/93/93
f 93/93/93 96/96/96 95/95/95
f 99/99/99 98/98/98 97/97/97
f 97/97/97 100/100/100 99/99/99
f 103/103/103 102/102/102 101/101/101
f 101/101/101 104/104/104 103/103/103
f 107/107/107 106/106/106 105/105/105
f 108/108/108 105/105/105 106/106/106
f 111/111/111 110/110/110 109/109/109
f 112/112/112 109/109/109 110/110/110
f 115/115/115 114/114/114 113/113/113
f 116/116/116 113/113/113 114/114/114
f 119/119/119 118/118/118 117/117/117
f 120/120/120 117/117/117 118/118/118
f 123/123/123 122/122/122 121/121/121
f 124/124/124 121/121/121 122/122/122
f 127/127/127 126/126/126 125/125/125
f 128/128/128 125/125/125 126/126/126
f 131/131/131 130/130/130 129/129/129
f 132/132/132 129/129/129 130/130/130
f 135/135/135 134/134/134 133/133/133
f 136/136/136 133/133/133 134/134/134
f 139/139/139 138/138/138 137/137/137
f 140/140/140 137/137/137 138/138/138
f 143/143/143 142/142/142 141/141/141
f 144/144/144 141/141/141 142/142/142
f 147/147/147 146/146/146 145/145/145
f 145/145/145 148/148/148 147/147/147
f 151/151/151 150/150/150 149/149/149
f 149/149/149 152/152/152 151/151/151
f 155/155/155 154/154/154 153/153/153
f 153/153/153 156/156/156 155/155/155
f 159/159/159 158/158/158 157/157/157
f 157/157/157 160/160/160 159/159/159
f 163/163/163 162/162/162 161/161/161
f 161/161/161 164/164/164 163/163/163
f 167/167/167 166/166/166 165/165/165
f 165/165/165 168/168/168 167/167/167
f 171/171/171 170/170/170 169/169/169
f 169/169/169 172/172/172 171/171/171
f 175/175/175 174/174/174 173/173/173
f 173/173/173 176/176/176 175/175/175
f 179/179/179 178/178/178 177/177/177
f 180/180/180 177/177/177 178/178/178
f 183/183/183 182/182/182 181/181/181
f 184/184/184 181/181/181 182/182/182
f 187/187/187 186/186/186 185/185/185
f 188/188/188 185/185/185 186/186/186
f 191/191/191 190/190/190 189/189/189
f 192/192/192 189/189/189 190/190/190
f 195/195/195 194/194/194 193/193/193
f 196/196/196 193/193/193 194/194/194
f 199/199/199 198/198/198 197/197/197
f 200/200/200 197/197/197 198/198/198
f 203/203/203 202/202/202 201/201/201
f 204/204/204 201/201/201 202/202/202
f 207/207/207 206/206/206 205/205/205
f 208/208/208 205/205/205 206/206/206
f 211/211/211 210/210/210 209/209/209
f 212/212/212 209/209/209 210/210/210
f 215/215/215 214/214/214 213/213/213
f 216/216/216 213/213/213 214/214/214
f 219/219/219 218/218/218 217/217/217
f 217/217/217 220/220/220 219/219/219
f 223/223/223 222/222/222 221/221/221
f 221/221/221 224/224/224 223/223/223
f 227/227/227 226/226/226 225/225/225
f 225/225/225 228/228/228 227/227/227
f 231/231/231 230/230/230 229/229/229
f 229/229/229 232/232/232 231/231/231
f 235/235/235 234/234/234 233/233/233
f 233/233/233 236/236/236 235/235/235
f 239/239/239 238/238/238 237/237/237
f 237/237/237 240/240/240 239/239/239
f 243/243/243 242/242/242 241/241/241
f 241/241/241 244/244/244 243/243/243
f 247/247/247 246/246/246 245/245/245
f 245/245/245 248/248/248 247/247/247
f 251/251/251 250/250/250 249/249/249
f 249/249/249 252/252/252 251/251/251
f 255/255/255 254/254/254 253/253/253
f 253/253/253 256/256/256 255/255/255
