g Combined_M_Cmn_ami01_Prefab_Mesh
v 178.502 29.72621 195.1294
v 179.8296 27.73224 181.6055
v 186.5779 31.6124 187.3047
v 173.122 26.41243 188.1191
v 179.8296 27.73224 181.6055
v 167.742 23.09825 181.1087
v 173.0818 23.85248 175.9064
v 173.122 26.41243 188.1191
v 95.73107 12.40303 186.1786
v 108.1644 12.89049 181.6095
v 104.262 12.82097 190.1127
v 99.65106 12.41513 177.6836
v 108.1644 12.89049 181.6095
v 103.5714 12.42725 169.1882
v 112.0668 12.96002 173.1059
v 99.65106 12.41513 177.6836
v 95.80567 10.93127 186.213
v 104.3854 11.35272 190.1693
v 108.2878 11.42226 181.6661
v 99.72606 10.94339 177.718
v 108.2878 11.42226 181.6661
v 112.1903 11.49217 173.1629
v 103.646 10.95549 169.223
v 99.72606 10.94339 177.718
v 106.0568 13.07056 190.9267
v 118.6198 14.28178 186.3528
v 114.8287 14.27592 194.906
v 109.9401 13.12914 182.4145
v 118.6198 14.28178 186.3528
v 113.8229 13.18773 173.9027
v 122.4109 14.28802 177.7992
v 109.9401 13.12914 182.4145
v 106.1982 11.60504 190.9911
v 114.8381 12.81081 194.9064
v 118.6292 12.81706 186.3528
v 110.0815 11.66364 182.4789
v 118.6292 12.81706 186.3528
v 122.4203 12.8233 177.7992
v 113.9647 11.72223 173.9667
v 110.0815 11.66364 182.4789
v 116.4653 14.58371 195.5896
v 128.9283 15.95586 190.7103
v 125.5267 16.12265 199.4252
v 120.1892 14.56027 187.0083
v 128.9283 15.95586 190.7103
v 123.9135 14.53645 178.4265
v 132.33 15.78947 181.995
v 120.1892 14.56027 187.0083
v 116.7001 13.13188 195.6911
v 125.5767 14.66534 199.4287
v 128.9783 14.49895 190.7134
v 120.424 13.10805 187.1098
v 128.9783 14.49895 190.7134
v 132.38 14.33217 181.9981
v 124.1483 13.08461 178.5281
v 120.424 13.10805 187.1098
v 127.3449 16.50075 199.9861
v 139.3142 17.80649 194.0565
v 137.0796 18.36465 203.1358
v 130.5458 16.26677 191.2083
v 139.3142 17.80649 194.0565
v 133.7471 16.03281 182.4301
v 141.5492 17.24872 184.9768
v 130.5458 16.26677 191.2083
v 127.6218 15.05632 200.0861
v 137.3839 16.92375 203.21
v 139.6189 16.3656 194.1303
v 130.8227 14.82236 191.3083
v 139.6189 16.3656 194.1303
v 141.8535 15.80783 185.051
v 134.024 14.58801 182.5305
v 130.8227 14.82236 191.3083
v 139.3076 19.02319 203.4659
v 150.5297 20.74063 195.7958
v 150.1977 22.2034 205.1173
v 141.2148 18.30957 194.344
v 150.5297 20.74063 195.7958
v 143.1221 17.59636 185.2221
v 150.8613 19.27747 186.4743
v 141.2148 18.30957 194.344
v 139.6201 17.58385 203.5694
v 150.2977 20.75781 205.2513
v 150.6297 19.29465 195.9298
v 141.5269 16.87024 194.4475
v 150.6297 19.29465 195.9298
v 150.9617 17.8315 186.6079
v 143.4342 16.15701 185.3256
v 141.5269 16.87024 194.4475
v 157.0108 22.61469 195.2095
v 158.3072 24.64812 204.1525
v 152.3713 22.91545 204.7267
v 152.2253 21.28433 195.5142
v 161.6155 23.94505 194.4166
v 164.3501 26.39603 203.2233
v 152.0788 19.65283 186.3013
v 155.5203 20.58127 186.2876
v 157.0108 22.61469 195.2095
v 152.2253 21.28433 195.5142
v 161.6155 23.94505 194.4166
v 159.0645 21.5222 185.7798
v 157.3909 21.18239 195.5048
v 152.5842 19.85164 195.7771
v 152.7303 21.48314 204.99
v 158.6872 23.2162 204.4482
v 162.0166 22.51353 194.7443
v 164.4629 24.94888 203.4182
v 152.4377 18.22052 186.5645
v 152.5842 19.85164 195.7771
v 157.3909 21.18239 195.5048
v 156.0945 19.14935 186.5618
v 162.0166 22.51353 194.7443
v 159.5704 20.07819 186.0708
v 166.1819 26.89754 202.216
v 171.7006 26.13159 189.4678
v 176.7873 29.32625 196.752
v 163.2771 24.32939 193.7796
v 171.7006 26.13159 189.4678
v 160.3719 21.76125 185.3432
v 166.6143 22.93654 182.1836
v 163.2771 24.32939 193.7796
v 166.6006 25.46484 202.5206
v 177.292 27.88927 196.9402
v 172.2057 24.69421 189.6564
v 163.6958 22.8967 194.0842
v 172.2057 24.69421 189.6564
v 167.1194 21.49954 182.3723
v 160.791 20.32855 185.6478
v 163.6958 22.8967 194.0842
v 179.0203 28.28883 195.3138
v 187.1583 30.17345 187.4746
v 180.4101 26.29329 181.7751
v 173.6403 24.97505 188.3038
v 180.4101 26.29329 181.7751
v 173.6622 22.41354 176.0759
v 168.2603 21.66086 181.2935
v 173.6403 24.97505 188.3038
v 187.8587 31.84674 185.4728
v 186.5986 28.76341 172.1368
v 193.9718 32.92947 176.4825
v 180.9952 27.91464 180.01
v 186.5986 28.76341 172.1368
v 174.1321 23.98254 174.5472
v 179.225 24.59734 167.7907
v 180.9952 27.91464 180.01
v 188.4328 30.40703 185.6459
v 194.4113 31.48662 176.8911
v 187.038 27.32056 172.5454
v 181.5697 26.47531 180.183
v 187.038 27.32056 172.5454
v 179.6644 23.15488 168.1992
v 174.7066 22.54282 174.7202
v 181.5697 26.47531 180.183
v 194.8534 33.09274 174.8124
v 191.6314 29.511 161.9747
v 199.5511 33.85556 165.6139
v 187.3849 28.89503 170.5936
v 191.6314 29.511 161.9747
v 179.916 24.69733 166.3748
v 183.7121 25.16682 158.336
v 187.3849 28.89503 170.5936
v 195.4241 31.65144 175.0092
v 200.1893 32.42053 166.0287
v 192.2696 28.07635 162.3899
v 187.9551 27.45375 170.7904
v 192.2696 28.07635 162.3899
v 184.3504 23.73178 158.7508
v 180.4866 23.25604 166.572
v 187.9551 27.45375 170.7904
v 200.1952 33.96376 164.0246
v 195.6186 30.05705 152.1947
v 203.6089 34.46411 155.594
v 192.2595 29.60748 160.4311
v 195.6186 30.05705 152.1947
v 184.3238 25.25119 156.8373
v 187.6286 25.6496 148.7958
v 192.2595 29.60748 160.4311
v 200.9178 32.52872 164.2589
v 204.3147 33.02751 155.8557
v 196.3244 28.62006 152.4568
v 192.9825 28.17244 160.6655
v 196.3244 28.62006 152.4568
v 188.3344 24.213 149.0574
v 185.0468 23.81616 157.0716
v 192.9825 28.17244 160.6655
vt -1.5 2.5
vt 2.5 -1.5
vt 2.5 2.5
vt -1.5 -1.5
vt -1.5 2.5
vt 2.5 -1.5
vt 2.5 2.5
vt -1.5 -1.5
vt -1.5 2.5
vt 2.5 -1.5
vt 2.5 2.5
vt -1.5 -1.5
vt -1.5 2.5
vt 2.5 -1.5
vt 2.5 2.5
vt -1.5 -1.5
vt -1.5 2.5
vt 2.5 2.5
vt 2.5 -1.5
vt -1.5 -1.5
vt -1.5 2.5
vt 2.5 2.5
vt 2.5 -1.5
vt -1.5 -1.5
vt -1.5 2.5
vt 2.5 -1.5
vt 2.5 2.5
vt -1.5 -1.5
vt -1.5 2.5
vt 2.5 -1.5
vt 2.5 2.5
vt -1.5 -1.5
vt -1.5 2.5
vt 2.5 2.5
vt 2.5 -1.5
vt -1.5 -1.5
vt -1.5 2.5
vt 2.5 2.5
vt 2.5 -1.5
vt -1.5 -1.5
vt -1.5 2.5
vt 2.5 -1.5
vt 2.5 2.5
vt -1.5 -1.5
vt -1.5 2.5
vt 2.5 -1.5
vt 2.5 2.5
vt -1.5 -1.5
vt -1.5 2.5
vt 2.5 2.5
vt 2.5 -1.5
vt -1.5 -1.5
vt -1.5 2.5
vt 2.5 2.5
vt 2.5 -1.5
vt -1.5 -1.5
vt -1.5 2.5
vt 2.5 -1.5
vt 2.5 2.5
vt -1.5 -1.5
vt -1.5 2.5
vt 2.5 -1.5
vt 2.5 2.5
vt -1.5 -1.5
vt -1.5 2.5
vt 2.5 2.5
vt 2.5 -1.5
vt -1.5 -1.5
vt -1.5 2.5
vt 2.5 2.5
vt 2.5 -1.5
vt -1.5 -1.5
vt -1.5 2.5
vt 2.5 -1.5
vt 2.5 2.5
vt -1.5 -1.5
vt -1.5 2.5
vt 2.5 -1.5
vt 2.5 2.5
vt -1.5 -1.5
vt -1.5 2.5
vt 2.5 2.5
vt 2.5 -1.5
vt -1.5 -1.5
vt -1.5 2.5
vt 2.5 2.5
vt 2.5 -1.5
vt -1.5 -1.5
vt 0.5000076 -1.5
vt 0.5000076 2.5
vt -1.5 2.5
vt -1.5 -1.5
vt 2.5 -1.5
vt 2.5 2.5
vt 2.5 -1.5
vt 2.5 0.5000076
vt -1.5 0.5000076
vt -1.5 -1.5
vt -1.5 2.5
vt 2.5 2.5
vt 0.5000076 -1.5
vt -1.5 -1.5
vt -1.5 2.5
vt 0.5000076 2.5
vt 2.5 -1.5
vt 2.5 2.5
vt 2.5 -1.5
vt -1.5 -1.5
vt -1.5 0.5000076
vt 2.5 0.5000076
vt -1.5 2.5
vt 2.5 2.5
vt -1.5 2.5
vt 2.5 -1.5
vt 2.5 2.5
vt -1.5 -1.5
vt -1.5 2.5
vt 2.5 -1.5
vt 2.5 2.5
vt -1.5 -1.5
vt -1.5 2.5
vt 2.5 2.5
vt 2.5 -1.5
vt -1.5 -1.5
vt -1.5 2.5
vt 2.5 2.5
vt 2.5 -1.5
vt -1.5 -1.5
vt -1.5 2.5
vt 2.5 2.5
vt 2.5 -1.5
vt -1.5 -1.5
vt -1.5 2.5
vt 2.5 2.5
vt 2.5 -1.5
vt -1.5 -1.5
vt -1.5 2.5
vt 2.5 -1.5
vt 2.5 2.5
vt -1.5 -1.5
vt -1.5 2.5
vt 2.5 -1.5
vt 2.5 2.5
vt -1.5 -1.5
vt -1.5 2.5
vt 2.5 2.5
vt 2.5 -1.5
vt -1.5 -1.5
vt -1.5 2.5
vt 2.5 2.5
vt 2.5 -1.5
vt -1.5 -1.5
vt -1.5 2.5
vt 2.5 -1.5
vt 2.5 2.5
vt -1.5 -1.5
vt -1.5 2.5
vt 2.5 -1.5
vt 2.5 2.5
vt -1.5 -1.5
vt -1.5 2.5
vt 2.5 2.5
vt 2.5 -1.5
vt -1.5 -1.5
vt -1.5 2.5
vt 2.5 2.5
vt 2.5 -1.5
vt -1.5 -1.5
vt -1.5 2.5
vt 2.5 -1.5
vt 2.5 2.5
vt -1.5 -1.5
vt -1.5 2.5
vt 2.5 -1.5
vt 2.5 2.5
vt -1.5 -1.5
vt -1.5 2.5
vt 2.5 2.5
vt 2.5 -1.5
vt -1.5 -1.5
vt -1.5 2.5
vt 2.5 2.5
vt 2.5 -1.5
vt -1.5 -1.5
vn -0.3623422 0.9150699 -0.1770738
vn -0.3467174 0.9150699 -0.2059954
vn -0.377967 0.9092106 -0.1745769
vn -0.3428111 0.9228823 -0.1754104
vn -0.3467174 0.9150699 -0.2059954
vn -0.338905 0.9189761 -0.2015599
vn -0.338905 0.9131168 -0.2266298
vn -0.3428111 0.9228823 -0.1754104
vn -0.04398575 0.9990321 0
vn -0.04593468 0.9989445 0
vn -0.04008043 0.9990532 -0.01691632
vn -0.04593468 0.9989445 0
vn -0.04593468 0.9989445 0
vn -0.04788321 0.998853 0
vn -0.0517786 0.9986586 0
vn -0.04593468 0.9989445 0
vn 0.04390293 -0.9989696 0.01150314
vn 0.04194981 -0.9989696 0.01732194
vn 0.04585508 -0.9989481 0
vn 0.04585508 -0.9989481 0
vn 0.04585508 -0.9989481 0
vn 0.05169943 -0.9986627 0
vn 0.04975189 -0.9987616 0
vn 0.04585508 -0.9989481 0
vn -0.1299231 0.9912409 -0.02369674
vn -0.108439 0.993194 -0.04250572
vn -0.1299231 0.9912409 -0.02369674
vn -0.108439 0.993194 -0.04250572
vn -0.108439 0.993194 -0.04250572
vn -0.108439 0.993194 -0.04250572
vn -0.1064858 0.993194 -0.04718551
vn -0.108439 0.993194 -0.04250572
vn 0.1298394 -0.9911572 0.02737098
vn 0.1298394 -0.9911572 0.02737098
vn 0.1298394 -0.9911572 0.02737098
vn 0.1298394 -0.9911572 0.02737098
vn 0.1298394 -0.9911572 0.02737098
vn 0.1083553 -0.9931102 0.044623
vn 0.1083553 -0.9931102 0.044623
vn 0.1298394 -0.9911572 0.02737098
vn -0.12797 0.9892877 -0.07023871
vn -0.1182045 0.9892877 -0.08565927
vn -0.1396886 0.9873346 -0.07521632
vn -0.147468 0.9890668 0
vn -0.1182045 0.9892877 -0.08565927
vn -0.12797 0.9892877 -0.07023871
vn -0.1221107 0.9912409 -0.05030423
vn -0.147468 0.9890668 0
vn 0.1376518 -0.989204 0.05027282
vn 0.1435111 -0.9872509 0.06884895
vn 0.1239801 -0.989204 0.07812996
vn 0.1473984 -0.9890772 0
vn 0.1239801 -0.989204 0.07812996
vn 0.1259332 -0.9911572 0.04181224
vn 0.1103084 -0.989204 0.09647509
vn 0.1473984 -0.9890772 0
vn -0.1435949 0.9834285 -0.1106749
vn -0.1533604 0.9853816 -0.07418702
vn -0.167032 0.9834285 -0.07048945
vn -0.1455479 0.9853816 -0.08853759
vn -0.1533604 0.9853816 -0.07418702
vn -0.1260169 0.9853816 -0.1146424
vn -0.12797 0.9892877 -0.07023871
vn -0.1455479 0.9853816 -0.08853759
vn 0.1435111 -0.9833447 0.1115244
vn 0.1669483 -0.9833447 0.07184292
vn 0.1532766 -0.9852979 0.07546157
vn 0.1454642 -0.9852979 0.08960094
vn 0.1532766 -0.9852979 0.07546157
vn 0.1278863 -0.989204 0.07155737
vn 0.1259332 -0.9852979 0.1154512
vn 0.1454642 -0.9852979 0.08960094
vn -0.2353905 0.9580381 -0.1635675
vn -0.2373437 0.9619443 -0.1353924
vn -0.2568747 0.954132 -0.1537778
vn -0.2353905 0.9638975 -0.1244708
vn -0.2373437 0.9619443 -0.1353924
vn -0.206094 0.9678036 -0.1445042
vn -0.1846099 0.9697567 -0.1596594
vn -0.2353905 0.9638975 -0.1244708
vn 0.2509317 -0.9579544 0.1391282
vn 0.2743689 -0.9540482 0.1204729
vn 0.2274945 -0.9599075 0.1637796
vn 0.2216352 -0.9618607 0.1603182
vn 0.2274945 -0.9599075 0.1637796
vn 0.1923386 -0.969673 0.1507981
vn 0.219682 -0.9677199 0.1235231
vn 0.2216352 -0.9618607 0.1603182
vn -0.2842181 0.9424133 -0.1762873
vn -0.2881243 0.9404602 -0.1803302
vn -0.2764057 0.9424133 -0.1883003
vn -0.2666402 0.9463196 -0.1827081
vn -0.2842181 0.9385071 -0.1960218
vn -0.3017961 0.9385071 -0.1677008
vn -0.2783588 0.9502257 -0.1399552
vn -0.2724996 0.9463196 -0.1738484
vn -0.2842181 0.9424133 -0.1762873
vn -0.2666402 0.9463196 -0.1827081
vn -0.2842181 0.9385071 -0.1960218
vn -0.2881243 0.9404602 -0.1803302
vn 0.295853 -0.9423296 0.1564799
vn 0.2782751 -0.9481889 0.1532995
vn 0.295853 -0.9462358 0.1308004
vn 0.2978061 -0.9403765 0.1643275
vn 0.3134309 -0.9384234 0.1453361
vn 0.3173372 -0.9364703 0.1494003
vn 0.2548379 -0.950142 0.179688
vn 0.2782751 -0.9481889 0.1532995
vn 0.295853 -0.9423296 0.1564799
vn 0.2665565 -0.9462358 0.1832631
vn 0.3134309 -0.9384234 0.1453361
vn 0.2978061 -0.9403765 0.1643275
vn -0.3115616 0.9346009 -0.1716112
vn -0.3017961 0.9346009 -0.1882555
vn -0.3135146 0.9306947 -0.1884568
vn -0.2900774 0.9365541 -0.1967778
vn -0.3017961 0.9346009 -0.1882555
vn -0.2900774 0.9365541 -0.1967778
vn -0.2842181 0.9346009 -0.2138718
vn -0.2900774 0.9365541 -0.1967778
vn 0.3114778 -0.9345172 0.1722183
vn 0.3056185 -0.930611 0.2013963
vn 0.3017123 -0.9345172 0.1888047
vn 0.2899937 -0.9364703 0.1972992
vn 0.3017123 -0.9345172 0.1888047
vn 0.2841344 -0.9345172 0.2143484
vn 0.2899937 -0.9364703 0.1972992
vn 0.2899937 -0.9364703 0.1972992
vn 0.3622585 -0.9169393 0.1673055
vn 0.3856957 -0.9091269 0.1572487
vn 0.3466337 -0.9169393 0.1976547
vn 0.3310089 -0.9227986 0.1971698
vn 0.3466337 -0.9169393 0.1976547
vn 0.3388212 -0.9149862 0.2190899
vn 0.3563992 -0.9208455 0.1581871
vn 0.3310089 -0.9227986 0.1971698
vn -0.3760139 0.9013982 -0.2146972
vn -0.3896856 0.9033513 -0.1791691
vn -0.4092166 0.8974919 -0.1644687
vn -0.3818733 0.9072574 -0.1762293
vn -0.3896856 0.9033513 -0.1791691
vn -0.3760139 0.9033513 -0.206325
vn -0.3935918 0.8994451 -0.1899582
vn -0.3818733 0.9072574 -0.1762293
vn 0.4052267 -0.9013145 0.1530475
vn 0.4091329 -0.8974082 0.1651324
vn 0.3896019 -0.9032676 0.1797722
vn 0.3817895 -0.9071738 0.1768406
vn 0.3896019 -0.9032676 0.1797722
vn 0.3935081 -0.8993614 0.190527
vn 0.3759302 -0.9032676 0.2068435
vn 0.3817895 -0.9071738 0.1768406
vn -0.4150759 0.8955389 -0.1603809
vn -0.4150759 0.8955389 -0.1603809
vn -0.4267945 0.8935858 -0.1391072
vn -0.4150759 0.8955389 -0.1603809
vn -0.4150759 0.8955389 -0.1603809
vn -0.4150759 0.8955389 -0.1603809
vn -0.4267945 0.8935858 -0.1391072
vn -0.4150759 0.8955389 -0.1603809
vn 0.4149922 -0.8954552 0.1610634
vn 0.4267108 -0.8935021 0.1398996
vn 0.4149922 -0.8954552 0.1610634
vn 0.4228046 -0.8954552 0.1392704
vn 0.4149922 -0.8954552 0.1610634
vn 0.4267108 -0.8935021 0.1398996
vn 0.4149922 -0.8954552 0.1610634
vn 0.4228046 -0.8954552 0.1392704
vn -0.4346069 0.8916327 -0.1269172
vn -0.4346069 0.8916327 -0.1269172
vn -0.4424193 0.8896796 -0.1128513
vn -0.4267945 0.8935858 -0.1391072
vn -0.4346069 0.8916327 -0.1269172
vn -0.4346069 0.8916327 -0.1269172
vn -0.4307008 0.8916327 -0.1395996
vn -0.4267945 0.8935858 -0.1391072
vn 0.4345232 -0.891549 0.1277887
vn 0.4423356 -0.8895959 0.113835
vn 0.4345232 -0.891549 0.1277887
vn 0.4267108 -0.8935021 0.1398996
vn 0.4345232 -0.891549 0.1277887
vn 0.430617 -0.891549 0.1403902
vn 0.4345232 -0.891549 0.1277887
vn 0.4267108 -0.8935021 0.1398996
g Combined_M_Cmn_ami01_Prefab_Mesh_0
f 3/3/3 2/2/2 1/1/1
f 4/4/4 1/1/1 2/2/2
f 7/7/7 6/6/6 5/5/5
f 8/8/8 5/5/5 6/6/6
f 11/11/11 10/10/10 9/9/9
f 12/12/12 9/9/9 10/10/10
f 15/15/15 14/14/14 13/13/13
f 16/16/16 13/13/13 14/14/14
f 19/19/19 18/18/18 17/17/17
f 17/17/17 20/20/20 19/19/19
f 23/23/23 22/22/22 21/21/21
f 21/21/21 24/24/24 23/23/23
f 27/27/27 26/26/26 25/25/25
f 28/28/28 25/25/25 26/26/26
f 31/31/31 30/30/30 29/29/29
f 32/32/32 29/29/29 30/30/30
f 35/35/35 34/34/34 33/33/33
f 33/33/33 36/36/36 35/35/35
f 39/39/39 38/38/38 37/37/37
f 37/37/37 40/40/40 39/39/39
f 43/43/43 42/42/42 41/41/41
f 44/44/44 41/41/41 42/42/42
f 47/47/47 46/46/46 45/45/45
f 48/48/48 45/45/45 46/46/46
f 51/51/51 50/50/50 49/49/49
f 49/49/49 52/52/52 51/51/51
f 55/55/55 54/54/54 53/53/53
f 53/53/53 56/56/56 55/55/55
f 59/59/59 58/58/58 57/57/57
f 60/60/60 57/57/57 58/58/58
f 63/63/63 62/62/62 61/61/61
f 64/64/64 61/61/61 62/62/62
f 67/67/67 66/66/66 65/65/65
f 65/65/65 68/68/68 67/67/67
f 71/71/71 70/70/70 69/69/69
f 69/69/69 72/72/72 71/71/71
f 75/75/75 74/74/74 73/73/73
f 76/76/76 73/73/73 74/74/74
f 79/79/79 78/78/78 77/77/77
f 80/80/80 77/77/77 78/78/78
f 83/83/83 82/82/82 81/81/81
f 81/81/81 84/84/84 83/83/83
f 87/87/87 86/86/86 85/85/85
f 85/85/85 88/88/88 87/87/87
f 91/91/91 90/90/90 89/89/89
f 92/92/92 91/91/91 89/89/89
f 89/89/89 90/90/90 93/93/93
f 90/90/90 94/94/94 93/93/93
f 97/97/97 96/96/96 95/95/95
f 98/98/98 97/97/97 95/95/95
f 97/97/97 99/99/99 96/96/96
f 99/99/99 100/100/100 96/96/96
f 103/103/103 102/102/102 101/101/101
f 104/104/104 103/103/103 101/101/101
f 104/104/104 101/101/101 105/105/105
f 106/106/106 104/104/104 105/105/105
f 109/109/109 108/108/108 107/107/107
f 110/110/110 109/109/109 107/107/107
f 111/111/111 109/109/109 110/110/110
f 112/112/112 111/111/111 110/110/110
f 115/115/115 114/114/114 113/113/113
f 116/116/116 113/113/113 114/114/114
f 119/119/119 118/118/118 117/117/117
f 120/120/120 117/117/117 118/118/118
f 123/123/123 122/122/122 121/121/121
f 121/121/121 124/124/124 123/123/123
f 127/127/127 126/126/126 125/125/125
f 125/125/125 128/128/128 127/127/127
f 131/131/131 130/130/130 129/129/129
f 129/129/129 132/132/132 131/131/131
f 135/135/135 134/134/134 133/133/133
f 133/133/133 136/136/136 135/135/135
f 139/139/139 138/138/138 137/137/137
f 140/140/140 137/137/137 138/138/138
f 143/143/143 142/142/142 141/141/141
f 144/144/144 141/141/141 142/142/142
f 147/147/147 146/146/146 145/145/145
f 145/145/145 148/148/148 147/147/147
f 151/151/151 150/150/150 149/149/149
f 149/149/149 152/152/152 151/151/151
f 155/155/155 154/154/154 153/153/153
f 156/156/156 153/153/153 154/154/154
f 159/159/159 158/158/158 157/157/157
f 160/160/160 157/157/157 158/158/158
f 163/163/163 162/162/162 161/161/161
f 161/161/161 164/164/164 163/163/163
f 167/167/167 166/166/166 165/165/165
f 165/165/165 168/168/168 167/167/167
f 171/171/171 170/170/170 169/169/169
f 172/172/172 169/169/169 170/170/170
f 175/175/175 174/174/174 173/173/173
f 176/176/176 173/173/173 174/174/174
f 179/179/179 178/178/178 177/177/177
f 177/177/177 180/180/180 179/179/179
f 183/183/183 182/182/182 181/181/181
f 181/181/181 184/184/184 183/183/183
