g NoBake
v 271.5647 59.93756 -70.71826
v 262.2205 59.79599 -79.70309
v 271.1726 60.19894 -77.04578
v 268.6678 59.66528 -68.453
v 262.667 59.39301 -70.28264
v 259.5196 59.22964 -70.6747
v 253.2574 58.84848 -70.36977
v 250.9922 58.84848 -73.27759
v 252.8871 59.24054 -79.31104
v 271.5429 60.3623 -80.10606
v 273.4379 60.74347 -86.13951
v 271.1726 60.74347 -89.04733
v 264.9105 60.3623 -88.74239
v 261.7631 60.19894 -89.13446
v 255.7623 59.93756 -90.9641
v 252.8654 59.66528 -88.68794
v 253.2574 59.39301 -82.37132
v 264.0392 59.38214 -68.30054
v 267.3064 59.49103 -66.44911
v 270.5845 59.69797 -66.68871
v 250.905 59.06628 -77.99326
v 249.01 58.80493 -74.8894
v 249.2279 58.66333 -71.3717
v 273.525 60.53653 -81.41295
v 275.42 60.78702 -84.52768
v 275.2022 60.93951 -88.04538
v 270.334 60.79791 -91.32349
v 266.7183 60.54742 -90.33243
v 250.5565 59.48013 -87.60976
v 251.6565 59.38214 -84.13562
v 251.602 59.69797 -90.97499
v 250.0882 59.30591 -84.33165
v 249.3477 58.97919 -78.17841
v 273.4488 60.93951 -90.29976
v 266.9035 60.62366 -91.81357
v 260.5651 60.28607 -92.5977
v 260.3908 60.20981 -91.11656
v 257.1236 60.10092 -92.96799
v 253.8455 59.90488 -92.72839
v 273.8735 60.12271 -71.80734
v 272.7736 60.20981 -75.28148
v 272.828 59.90488 -68.44211
v 274.3418 60.29694 -75.07455
v 275.0824 60.61279 -81.2278
v 254.096 58.79404 -68.09361
v 257.7117 59.05542 -69.08466
v 250.9813 58.66333 -69.11734
v 257.5266 58.97919 -67.60353
v 263.865 59.30591 -66.8085
v 263.6036 68.51944 -82.65448
v 261.7195 68.25806 -79.32193
v 260.6958 68.36697 -83.02477
v 258.3869 68.14914 -81.2169
v 258.0276 67.99667 -78.2982
v 259.8354 67.99667 -75.98936
v 262.7541 68.14914 -75.61908
v 265.063 68.36697 -77.42694
v 265.4114 68.51944 -80.34566
v -438.3025 33.12463 -58.4989
v -438.3025 33.12463 -176.4561
v -164.0092 33.12463 -176.4561
v -164.0092 33.12463 -58.4989
vt 0 0
vt 0 0
vt 0 0
vt 0 0
vt 0 0
vt 0 0
vt 0 0
vt 0 0
vt 0 0
vt 0 0
vt 0 0
vt 0 0
vt 0 0
vt 0 0
vt 0 0
vt 0 0
vt 0 0
vt 0 0
vt 0 0
vt 0 0
vt 0 0
vt 0 0
vt 0 0
vt 0 0
vt 0 0
vt 0 0
vt 0 0
vt 0 0
vt 0 0
vt 0 0
vt 0 0
vt 0 0
vt 0 0
vt 0 0
vt 0 0
vt 0 0
vt 0 0
vt 0 0
vt 0 0
vt 0 0
vt 0 0
vt 0 0
vt 0 0
vt 0 0
vt 0 0
vt 0 0
vt 0 0
vt 0 0
vt 0 0
vt 0 0
vt 0 0
vt 0 0
vt 0 0
vt 0 0
vt 0 0
vt 0 0
vt 0 0
vt 0 0
vt 0 0
vt 0 1
vt 1 1
vt 1 0
vn -0.05882353 0.9960784 0.06608729
vn -0.05882353 0.9960784 0.06608729
vn -0.05882353 0.9960784 0.06608729
vn -0.05882353 0.9960784 0.06608729
vn -0.05882353 0.9960784 0.06608729
vn -0.05882353 0.9960784 0.06608729
vn -0.05882353 0.9960784 0.06608729
vn -0.05882353 0.9960784 0.06608729
vn -0.05882353 0.9960784 0.06608729
vn -0.05882353 0.9960784 0.06608729
vn -0.05882353 0.9960784 0.06608729
vn -0.05882353 0.9960784 0.06608729
vn -0.05882353 0.9960784 0.06608729
vn -0.05882353 0.9960784 0.06608729
vn -0.05882353 0.9960784 0.06608729
vn -0.05882353 0.9960784 0.06608729
vn -0.05882353 0.9960784 0.06608729
vn -0.05882353 0.9960784 0.06608729
vn -0.05882353 0.9960784 0.06608729
vn -0.05882353 0.9960784 0.06608729
vn -0.05882353 0.9960784 0.06608729
vn -0.05882353 0.9960784 0.06608729
vn -0.05882353 0.9960784 0.06608729
vn -0.05882353 0.9960784 0.06608729
vn -0.05882353 0.9960784 0.06608729
vn -0.05882353 0.9960784 0.06608729
vn -0.05882353 0.9960784 0.06608729
vn -0.05882353 0.9960784 0.06608729
vn -0.05882353 0.9960784 0.06608729
vn -0.05882353 0.9960784 0.06608729
vn -0.05882353 0.9960784 0.06608729
vn -0.05882353 0.9960784 0.06608729
vn -0.05882353 0.9960784 0.06608729
vn -0.05882353 0.9960784 0.06608729
vn -0.05882353 0.9960784 0.06608729
vn -0.05882353 0.9960784 0.06608729
vn -0.05882353 0.9960784 0.06608729
vn -0.05882353 0.9960784 0.06608729
vn -0.05882353 0.9960784 0.06608729
vn -0.05882353 0.9960784 0.06608729
vn -0.05882353 0.9960784 0.06608729
vn -0.05882353 0.9960784 0.06608729
vn -0.05882353 0.9960784 0.06608729
vn -0.05882353 0.9960784 0.06608729
vn -0.05882353 0.9960784 0.06608729
vn -0.05882353 0.9960784 0.06608729
vn -0.05882353 0.9960784 0.06608729
vn -0.05882353 0.9960784 0.06608729
vn -0.05882353 0.9960784 0.06608729
vn -0.05882353 0.9960784 0.06608729
vn -0.05882353 0.9960784 0.06608729
vn -0.05882353 0.9960784 0.06608729
vn -0.05882353 0.9960784 0.06608729
vn -0.05882353 0.9960784 0.06608729
vn -0.05882353 0.9960784 0.06608729
vn -0.05882353 0.9960784 0.06608729
vn -0.05882353 0.9960784 0.06608729
vn -0.05882353 0.9960784 0.06608729
vn 0 1 0
vn 0 1 0
vn 0 1 0
vn 0 1 0
g NoBake_0
f 3/3/3 2/2/2 1/1/1
f 2/2/2 4/4/4 1/1/1
f 2/2/2 5/5/5 4/4/4
f 5/5/5 2/2/2 6/6/6
f 6/6/6 2/2/2 7/7/7
f 2/2/2 8/8/8 7/7/7
f 2/2/2 9/9/9 8/8/8
f 10/10/10 2/2/2 3/3/3
f 2/2/2 10/10/10 11/11/11
f 2/2/2 11/11/11 12/12/12
f 13/13/13 2/2/2 12/12/12
f 14/14/14 2/2/2 13/13/13
f 2/2/2 14/14/14 15/15/15
f 16/16/16 2/2/2 15/15/15
f 17/17/17 2/2/2 16/16/16
f 9/9/9 2/2/2 17/17/17
f 4/4/4 5/5/5 18/18/18
f 19/19/19 4/4/4 18/18/18
f 20/20/20 4/4/4 19/19/19
f 8/8/8 9/9/9 21/21/21
f 22/22/22 8/8/8 21/21/21
f 23/23/23 8/8/8 22/22/22
f 11/11/11 10/10/10 24/24/24
f 25/25/25 11/11/11 24/24/24
f 26/26/26 11/11/11 25/25/25
f 12/12/12 11/11/11 26/26/26
f 13/13/13 12/12/12 27/27/27
f 28/28/28 13/13/13 27/27/27
f 17/17/17 16/16/16 29/29/29
f 30/30/30 17/17/17 29/29/29
f 31/31/31 29/29/29 16/16/16
f 32/32/32 17/17/17 30/30/30
f 9/9/9 17/17/17 32/32/32
f 33/33/33 9/9/9 32/32/32
f 21/21/21 9/9/9 33/33/33
f 34/34/34 27/27/27 12/12/12
f 34/34/34 12/12/12 26/26/26
f 35/35/35 13/13/13 28/28/28
f 14/14/14 13/13/13 35/35/35
f 36/36/36 14/14/14 35/35/35
f 37/37/37 14/14/14 36/36/36
f 15/15/15 14/14/14 37/37/37
f 38/38/38 15/15/15 37/37/37
f 39/39/39 15/15/15 38/38/38
f 16/16/16 15/15/15 39/39/39
f 31/31/31 16/16/16 39/39/39
f 3/3/3 1/1/1 40/40/40
f 41/41/41 3/3/3 40/40/40
f 42/42/42 40/40/40 1/1/1
f 43/43/43 3/3/3 41/41/41
f 10/10/10 3/3/3 43/43/43
f 44/44/44 10/10/10 43/43/43
f 24/24/24 10/10/10 44/44/44
f 42/42/42 1/1/1 20/20/20
f 1/1/1 4/4/4 20/20/20
f 6/6/6 7/7/7 45/45/45
f 46/46/46 6/6/6 45/45/45
f 47/47/47 45/45/45 7/7/7
f 48/48/48 6/6/6 46/46/46
f 5/5/5 6/6/6 48/48/48
f 49/49/49 5/5/5 48/48/48
f 18/18/18 5/5/5 49/49/49
f 47/47/47 7/7/7 23/23/23
f 7/7/7 8/8/8 23/23/23
f 52/52/52 51/51/51 50/50/50
f 53/53/53 51/51/51 52/52/52
f 54/54/54 51/51/51 53/53/53
f 55/55/55 51/51/51 54/54/54
f 56/56/56 51/51/51 55/55/55
f 57/57/57 51/51/51 56/56/56
f 58/58/58 51/51/51 57/57/57
f 50/50/50 51/51/51 58/58/58
g NoBake_1
f 61/61/61 60/60/60 59/59/59
f 62/62/62 61/61/61 59/59/59
