g Tire_Rear
v -2.842062 0.8606124 0.2796273
v -2.198559 0.8606124 0.279633
v -2.198559 0.7320819 0.5318861
v -2.850326 0.7320819 0.5318861
v -2.198559 0.5318861 0.7320819
v -2.850326 0.5318861 0.7320819
v -2.198559 0.279633 0.8606124
v -2.850326 0.279633 0.8606124
v -2.198559 2.861023E-06 0.9049008
v -2.850326 2.861023E-06 0.9049008
v -2.198559 -0.2796328 0.8606124
v -2.850326 -0.2796328 0.8606124
v -2.198559 -0.5318859 0.7320819
v -2.850326 -0.5318859 0.7320819
v -2.198559 -0.7320817 0.5318861
v -2.850326 -0.7320817 0.5318861
v -2.198559 -0.8606122 0.279633
v -2.850326 -0.8606122 0.279633
v -2.198559 -0.9049006 -2.622604E-06
v -2.850326 -0.9049006 -2.622604E-06
v -2.198559 -0.8606122 -0.2796271
v -2.850326 -0.8606122 -0.2796271
v -2.198554 -0.7320817 -0.5318859
v -2.850326 -0.7320817 -0.5318859
v -2.198559 -0.5318859 -0.7320817
v -2.850326 -0.5318859 -0.7320817
v -2.198554 -0.2796271 -0.8606122
v -2.850326 -0.2796271 -0.8606122
v -2.198554 2.861023E-06 -0.9049006
v -2.850326 2.861023E-06 -0.9049006
v -2.198554 0.279633 -0.8606122
v -2.850326 0.2796273 -0.8606122
v -2.198559 0.5318861 -0.7320817
v -2.850326 0.5318861 -0.7320817
v -2.198559 0.7320819 -0.5318859
v -2.850326 0.7320819 -0.5318859
v -2.198559 0.8606124 -0.2796271
v -2.850326 0.8606124 -0.2796271
v -2.198559 0.9049008 -2.622604E-06
v -2.850326 0.9049008 -2.622604E-06
v -2.198559 0.8606124 0.279633
v -2.842062 0.8606124 0.2796273
v -2.850326 0.7320819 0.5318861
v -2.951552 2.861023E-06 -2.622604E-06
v -2.842062 0.8606124 0.2796273
v -2.850326 0.5318861 0.7320819
v -2.850326 0.279633 0.8606124
v -2.850326 2.861023E-06 0.9049008
v -2.850326 -0.2796328 0.8606124
v -2.850326 -0.5318859 0.7320819
v -2.850326 -0.7320817 0.5318861
v -2.850326 -0.8606122 0.279633
v -2.850326 -0.9049006 -2.622604E-06
v -2.850326 -0.8606122 -0.2796271
v -2.850326 -0.7320817 -0.5318859
v -2.850326 -0.5318859 -0.7320817
v -2.850326 -0.2796271 -0.8606122
v -2.850326 2.861023E-06 -0.9049006
v -2.850326 0.2796273 -0.8606122
v -2.850326 0.5318861 -0.7320817
v -2.850326 0.7320819 -0.5318859
v -2.850326 0.8606124 -0.2796271
v -2.850326 0.9049008 -2.622604E-06
v -2.198559 0.8606124 0.279633
v -2.198559 2.861023E-06 -2.622604E-06
v -2.198559 0.7320819 0.5318861
v -2.198559 0.5318861 0.7320819
v -2.198559 0.279633 0.8606124
v -2.198559 2.861023E-06 0.9049008
v -2.198559 -0.2796328 0.8606124
v -2.198559 -0.5318859 0.7320819
v -2.198559 -0.7320817 0.5318861
v -2.198559 -0.8606122 0.279633
v -2.198559 -0.9049006 -2.622604E-06
v -2.198559 -0.8606122 -0.2796271
v -2.198554 -0.7320817 -0.5318859
v -2.198559 -0.5318859 -0.7320817
v -2.198554 -0.2796271 -0.8606122
v -2.198554 2.861023E-06 -0.9049006
v -2.198554 0.279633 -0.8606122
v -2.198559 0.5318861 -0.7320817
v -2.198559 0.7320819 -0.5318859
v -2.198559 0.8606124 -0.2796271
v -2.198559 0.9049008 -2.622604E-06
v 2.842062 0.8606124 0.2796273
v 2.850326 0.7320819 0.5318861
v 2.198559 0.7320819 0.5318861
v 2.198559 0.8606124 0.279633
v 2.198559 0.5318861 0.7320819
v 2.850326 0.5318861 0.7320819
v 2.198559 0.279633 0.8606124
v 2.850326 0.279633 0.8606124
v 2.198559 2.861023E-06 0.9049008
v 2.850326 2.861023E-06 0.9049008
v 2.198559 -0.2796328 0.8606124
v 2.850326 -0.2796328 0.8606124
v 2.198559 -0.5318859 0.7320819
v 2.850326 -0.5318859 0.7320819
v 2.198559 -0.7320817 0.5318861
v 2.850326 -0.7320817 0.5318861
v 2.198559 -0.8606122 0.279633
v 2.850326 -0.8606122 0.279633
v 2.198554 -0.9049006 -2.622604E-06
v 2.850326 -0.9049006 -2.622604E-06
v 2.198554 -0.8606122 -0.2796271
v 2.850326 -0.8606122 -0.2796271
v 2.198554 -0.7320817 -0.5318859
v 2.850326 -0.7320817 -0.5318859
v 2.198554 -0.5318859 -0.7320817
v 2.850326 -0.5318859 -0.7320817
v 2.198554 -0.2796271 -0.8606122
v 2.850326 -0.2796271 -0.8606122
v 2.198554 2.861023E-06 -0.9049006
v 2.850326 2.861023E-06 -0.9049006
v 2.198554 0.279633 -0.8606122
v 2.850326 0.2796273 -0.8606122
v 2.198554 0.5318861 -0.7320817
v 2.850326 0.5318861 -0.7320817
v 2.198554 0.7320819 -0.5318859
v 2.850326 0.7320819 -0.5318859
v 2.198554 0.8606124 -0.2796271
v 2.850326 0.8606124 -0.2796271
v 2.198554 0.9049008 -2.622604E-06
v 2.850326 0.9049008 -2.622604E-06
v 2.198559 0.8606124 0.279633
v 2.842062 0.8606124 0.2796273
v 2.850326 0.7320819 0.5318861
v 2.842062 0.8606124 0.2796273
v 2.951552 2.861023E-06 -2.622604E-06
v 2.850326 0.5318861 0.7320819
v 2.850326 0.279633 0.8606124
v 2.850326 2.861023E-06 0.9049008
v 2.850326 -0.2796328 0.8606124
v 2.850326 -0.5318859 0.7320819
v 2.850326 -0.7320817 0.5318861
v 2.850326 -0.8606122 0.279633
v 2.850326 -0.9049006 -2.622604E-06
v 2.850326 -0.8606122 -0.2796271
v 2.850326 -0.7320817 -0.5318859
v 2.850326 -0.5318859 -0.7320817
v 2.850326 -0.2796271 -0.8606122
v 2.850326 2.861023E-06 -0.9049006
v 2.850326 0.2796273 -0.8606122
v 2.850326 0.5318861 -0.7320817
v 2.850326 0.7320819 -0.5318859
v 2.850326 0.8606124 -0.2796271
v 2.850326 0.9049008 -2.622604E-06
v 2.198559 0.8606124 0.279633
v 2.198559 0.7320819 0.5318861
v 2.198554 2.861023E-06 -2.622604E-06
v 2.198559 0.5318861 0.7320819
v 2.198559 0.279633 0.8606124
v 2.198559 2.861023E-06 0.9049008
v 2.198559 -0.2796328 0.8606124
v 2.198559 -0.5318859 0.7320819
v 2.198559 -0.7320817 0.5318861
v 2.198559 -0.8606122 0.279633
v 2.198554 -0.9049006 -2.622604E-06
v 2.198554 -0.8606122 -0.2796271
v 2.198554 -0.7320817 -0.5318859
v 2.198554 -0.5318859 -0.7320817
v 2.198554 -0.2796271 -0.8606122
v 2.198554 2.861023E-06 -0.9049006
v 2.198554 0.279633 -0.8606122
v 2.198554 0.5318861 -0.7320817
v 2.198554 0.7320819 -0.5318859
v 2.198554 0.8606124 -0.2796271
v 2.198554 0.9049008 -2.622604E-06
vt 0.8798313 0.9897795
vt 0.9328312 0.9897795
vt 0.9328312 0.9749577
vt 0.8798313 0.9749577
vt 0.9328312 0.9601359
vt 0.8798313 0.9601359
vt 0.9328312 0.9453206
vt 0.8798313 0.9453206
vt 0.9328312 0.9304988
vt 0.8798313 0.9304988
vt 0.9328312 0.915677
vt 0.8798313 0.915677
vt 0.9328312 0.9008552
vt 0.8798313 0.9008552
vt 0.9328312 0.8860334
vt 0.8798313 0.8860334
vt 0.9328312 0.8712115
vt 0.8798313 0.8712115
vt 0.9328312 0.8563898
vt 0.8798313 0.8563898
vt 0.9328312 0.8415679
vt 0.8798313 0.8415679
vt 0.9328312 0.8267461
vt 0.8798313 0.8267461
vt 0.9328312 0.8119308
vt 0.8798313 0.8119308
vt 0.9328312 0.797109
vt 0.8798313 0.797109
vt 0.9328312 0.7822872
vt 0.8798313 0.7822872
vt 0.9328312 0.7674654
vt 0.8798313 0.7674654
vt 0.9328312 0.7526436
vt 0.8798313 0.7526436
vt 0.9328312 0.7378218
vt 0.8798313 0.7378218
vt 0.9328312 0.7229999
vt 0.8798313 0.7229999
vt 0.9328312 0.7081782
vt 0.8798313 0.7081782
vt 0.9328312 0.6933563
vt 0.8798313 0.6933563
vt 0.9043307 0.6701184
vt 0.9379163 0.6238922
vt 0.9202628 0.6782389
vt 0.8916901 0.6574778
vt 0.8835762 0.6415523
vt 0.8807774 0.6238922
vt 0.8835762 0.6062387
vt 0.8916901 0.5903066
vt 0.9043307 0.577666
vt 0.9202628 0.5695521
vt 0.9379163 0.5667533
vt 0.9555763 0.5695521
vt 0.9715019 0.577666
vt 0.984149 0.5903066
vt 0.992263 0.6062387
vt 0.9950618 0.6238922
vt 0.992263 0.6415523
vt 0.984149 0.6574778
vt 0.9715019 0.6701184
vt 0.9555763 0.6782389
vt 0.9379163 0.6810311
vt 0.9775726 0.7464218
vt 0.9687425 0.7192485
vt 0.9855353 0.7423616
vt 0.9918622 0.7360413
vt 0.9959158 0.7280785
vt 0.9973152 0.7192485
vt 0.9959158 0.7104185
vt 0.9918622 0.7024557
vt 0.9855353 0.6961354
vt 0.9775726 0.6920752
vt 0.9687425 0.6906758
vt 0.9599191 0.6920752
vt 0.9519497 0.6961354
vt 0.9456294 0.7024557
vt 0.9415758 0.7104185
vt 0.9401764 0.7192485
vt 0.9415758 0.7280785
vt 0.9456294 0.7360413
vt 0.9519497 0.7423616
vt 0.9599191 0.7464218
vt 0.9687425 0.7478212
vt 0.8798313 0.9897795
vt 0.8798313 0.9749577
vt 0.9328312 0.9749577
vt 0.9328312 0.9897795
vt 0.9328312 0.9601359
vt 0.8798313 0.9601359
vt 0.9328312 0.9453206
vt 0.8798313 0.9453206
vt 0.9328312 0.9304988
vt 0.8798313 0.9304988
vt 0.9328312 0.915677
vt 0.8798313 0.915677
vt 0.9328312 0.9008552
vt 0.8798313 0.9008552
vt 0.9328312 0.8860334
vt 0.8798313 0.8860334
vt 0.9328312 0.8712115
vt 0.8798313 0.8712115
vt 0.9328312 0.8563898
vt 0.8798313 0.8563898
vt 0.9328312 0.8415679
vt 0.8798313 0.8415679
vt 0.9328312 0.8267461
vt 0.8798313 0.8267461
vt 0.9328312 0.8119308
vt 0.8798313 0.8119308
vt 0.9328312 0.797109
vt 0.8798313 0.797109
vt 0.9328312 0.7822872
vt 0.8798313 0.7822872
vt 0.9328312 0.7674654
vt 0.8798313 0.7674654
vt 0.9328312 0.7526436
vt 0.8798313 0.7526436
vt 0.9328312 0.7378218
vt 0.8798313 0.7378218
vt 0.9328312 0.7229999
vt 0.8798313 0.7229999
vt 0.9328312 0.7081782
vt 0.8798313 0.7081782
vt 0.9328312 0.6933563
vt 0.8798313 0.6933563
vt 0.9043307 0.6701184
vt 0.9202628 0.6782389
vt 0.9379163 0.6238922
vt 0.8916901 0.6574778
vt 0.8835762 0.6415523
vt 0.8807774 0.6238922
vt 0.8835762 0.6062387
vt 0.8916901 0.5903066
vt 0.9043307 0.577666
vt 0.9202628 0.5695521
vt 0.9379163 0.5667533
vt 0.9555763 0.5695521
vt 0.9715019 0.577666
vt 0.984149 0.5903066
vt 0.992263 0.6062387
vt 0.9950618 0.6238922
vt 0.992263 0.6415523
vt 0.984149 0.6574778
vt 0.9715019 0.6701184
vt 0.9555763 0.6782389
vt 0.9379163 0.6810311
vt 0.9775726 0.7464218
vt 0.9855353 0.7423616
vt 0.9687425 0.7192485
vt 0.9918622 0.7360413
vt 0.9959158 0.7280785
vt 0.9973152 0.7192485
vt 0.9959158 0.7104185
vt 0.9918622 0.7024557
vt 0.9855353 0.6961354
vt 0.9775726 0.6920752
vt 0.9687425 0.6906758
vt 0.9599191 0.6920752
vt 0.9519497 0.6961354
vt 0.9456294 0.7024557
vt 0.9415758 0.7104185
vt 0.9401764 0.7192485
vt 0.9415758 0.7280785
vt 0.9456294 0.7360413
vt 0.9519497 0.7423616
vt 0.9599191 0.7464218
vt 0.9687425 0.7478212
vn -0.4936459 0.8279566 0.2660858
vn 0.5327466 0.8044962 0.2626157
vn 0.5307915 0.6852392 0.4987059
vn -0.5112412 0.6989244 0.5001371
vn 0.5307915 0.497556 0.6860746
vn -0.5053761 0.5073311 0.6980044
vn 0.5307915 0.262952 0.8056778
vn -0.5053761 0.266862 0.8205971
vn 0.5307915 0.0009775162 0.8475019
vn -0.5053761 0.0009775162 0.8628986
vn 0.5307915 -0.262952 0.8056778
vn -0.5053761 -0.266862 0.8205971
vn 0.5307915 -0.497556 0.6860746
vn -0.5053761 -0.5073311 0.6980044
vn 0.5307915 -0.6852392 0.4987059
vn -0.5053761 -0.6989244 0.5060629
vn 0.5307915 -0.8064512 0.2605701
vn -0.5053761 -0.8201364 0.2682745
vn 0.5307895 -0.8475037 0
vn -0.505268 -0.8629625 0
vn 0.5307915 -0.8064512 -0.2605701
vn -0.5053761 -0.8201364 -0.2682745
vn 0.5307915 -0.6852392 -0.4987059
vn -0.5053761 -0.6989244 -0.5060629
vn 0.5307915 -0.497556 -0.6860746
vn -0.5053761 -0.5073311 -0.6980044
vn 0.5307915 -0.262952 -0.8056778
vn -0.5053761 -0.266862 -0.8205971
vn 0.5307915 0.0009775162 -0.8475019
vn -0.5053761 0.0009775162 -0.8628986
vn 0.5307915 0.262952 -0.8056778
vn -0.5053761 0.266862 -0.8205971
vn 0.5307915 0.497556 -0.6860746
vn -0.5053761 0.5073311 -0.6980044
vn 0.5307915 0.6852392 -0.4987059
vn -0.5053761 0.6989244 -0.5060629
vn 0.5307915 0.8064512 -0.2605701
vn -0.5053761 0.8201364 -0.2682745
vn 0.5307895 0.8475037 0
vn -0.5112412 0.8592371 0.01854987
vn 0.5327466 0.8044962 0.2626157
vn -0.4936459 0.8279566 0.2660858
vn -0.5112412 0.6989244 0.5001371
vn -0.9999995 0.0009775162 0
vn -0.4936459 0.8279566 0.2660858
vn -0.5053761 0.5073311 0.6980044
vn -0.5053761 0.266862 0.8205971
vn -0.5053761 0.0009775162 0.8628986
vn -0.5053761 -0.266862 0.8205971
vn -0.5053761 -0.5073311 0.6980044
vn -0.5053761 -0.6989244 0.5060629
vn -0.5053761 -0.8201364 0.2682745
vn -0.505268 -0.8629625 0
vn -0.5053761 -0.8201364 -0.2682745
vn -0.5053761 -0.6989244 -0.5060629
vn -0.5053761 -0.5073311 -0.6980044
vn -0.5053761 -0.266862 -0.8205971
vn -0.5053761 0.0009775162 -0.8628986
vn -0.5053761 0.266862 -0.8205971
vn -0.5053761 0.5073311 -0.6980044
vn -0.5053761 0.6989244 -0.5060629
vn -0.5053761 0.8201364 -0.2682745
vn -0.5112412 0.8592371 0.01854987
vn 0.5327466 0.8044962 0.2626157
vn 0.9999995 0.0009775162 0
vn 0.5307915 0.6852392 0.4987059
vn 0.5307915 0.497556 0.6860746
vn 0.5307915 0.262952 0.8056778
vn 0.5307915 0.0009775162 0.8475019
vn 0.5307915 -0.262952 0.8056778
vn 0.5307915 -0.497556 0.6860746
vn 0.5307915 -0.6852392 0.4987059
vn 0.5307915 -0.8064512 0.2605701
vn 0.5307895 -0.8475037 0
vn 0.5307915 -0.8064512 -0.2605701
vn 0.5307915 -0.6852392 -0.4987059
vn 0.5307915 -0.497556 -0.6860746
vn 0.5307915 -0.262952 -0.8056778
vn 0.5307915 0.0009775162 -0.8475019
vn 0.5307915 0.262952 -0.8056778
vn 0.5307915 0.497556 -0.6860746
vn 0.5307915 0.6852392 -0.4987059
vn 0.5307915 0.8064512 -0.2605701
vn 0.5307895 0.8475037 0
vn 0.4936459 0.8279566 0.2660858
vn 0.5112412 0.6989244 0.5001371
vn -0.5307915 0.6852392 0.4987059
vn -0.5327466 0.8044962 0.2626157
vn -0.5307915 0.497556 0.6860746
vn 0.5053761 0.5073311 0.6980044
vn -0.5307915 0.262952 0.8056778
vn 0.5053761 0.266862 0.8205971
vn -0.5307915 0.0009775162 0.8475019
vn 0.5053761 0.0009775162 0.8628986
vn -0.5307915 -0.262952 0.8056778
vn 0.5053761 -0.266862 0.8205971
vn -0.5307915 -0.497556 0.6860746
vn 0.5053761 -0.5073311 0.6980044
vn -0.5307915 -0.6852392 0.4987059
vn 0.5053761 -0.6989244 0.5060629
vn -0.5307915 -0.8064512 0.2605701
vn 0.5053761 -0.8201364 0.2682745
vn -0.5307895 -0.8475037 0
vn 0.505268 -0.8629625 0
vn -0.5307915 -0.8064512 -0.2605701
vn 0.5053761 -0.8201364 -0.2682745
vn -0.5307915 -0.6852392 -0.4987059
vn 0.5053761 -0.6989244 -0.5060629
vn -0.5307915 -0.497556 -0.6860746
vn 0.5053761 -0.5073311 -0.6980044
vn -0.5307915 -0.262952 -0.8056778
vn 0.5053761 -0.266862 -0.8205971
vn -0.5307915 0.0009775162 -0.8475019
vn 0.5053761 0.0009775162 -0.8628986
vn -0.5307915 0.262952 -0.8056778
vn 0.5053761 0.266862 -0.8205971
vn -0.5307915 0.497556 -0.6860746
vn 0.5053761 0.5073311 -0.6980044
vn -0.5307915 0.6852392 -0.4987059
vn 0.5053761 0.6989244 -0.5060629
vn -0.5307915 0.8064512 -0.2605701
vn 0.5053761 0.8201364 -0.2682745
vn -0.5307895 0.8475037 0
vn 0.5112412 0.8592371 0.01854987
vn -0.5327466 0.8044962 0.2626157
vn 0.4936459 0.8279566 0.2660858
vn 0.5112412 0.6989244 0.5001371
vn 0.4936459 0.8279566 0.2660858
vn 0.9999995 0.0009775162 0
vn 0.5053761 0.5073311 0.6980044
vn 0.5053761 0.266862 0.8205971
vn 0.5053761 0.0009775162 0.8628986
vn 0.5053761 -0.266862 0.8205971
vn 0.5053761 -0.5073311 0.6980044
vn 0.5053761 -0.6989244 0.5060629
vn 0.5053761 -0.8201364 0.2682745
vn 0.505268 -0.8629625 0
vn 0.5053761 -0.8201364 -0.2682745
vn 0.5053761 -0.6989244 -0.5060629
vn 0.5053761 -0.5073311 -0.6980044
vn 0.5053761 -0.266862 -0.8205971
vn 0.5053761 0.0009775162 -0.8628986
vn 0.5053761 0.266862 -0.8205971
vn 0.5053761 0.5073311 -0.6980044
vn 0.5053761 0.6989244 -0.5060629
vn 0.5053761 0.8201364 -0.2682745
vn 0.5112412 0.8592371 0.01854987
vn -0.5327466 0.8044962 0.2626157
vn -0.5307915 0.6852392 0.4987059
vn -0.9999995 0.0009775162 0
vn -0.5307915 0.497556 0.6860746
vn -0.5307915 0.262952 0.8056778
vn -0.5307915 0.0009775162 0.8475019
vn -0.5307915 -0.262952 0.8056778
vn -0.5307915 -0.497556 0.6860746
vn -0.5307915 -0.6852392 0.4987059
vn -0.5307915 -0.8064512 0.2605701
vn -0.5307895 -0.8475037 0
vn -0.5307915 -0.8064512 -0.2605701
vn -0.5307915 -0.6852392 -0.4987059
vn -0.5307915 -0.497556 -0.6860746
vn -0.5307915 -0.262952 -0.8056778
vn -0.5307915 0.0009775162 -0.8475019
vn -0.5307915 0.262952 -0.8056778
vn -0.5307915 0.497556 -0.6860746
vn -0.5307915 0.6852392 -0.4987059
vn -0.5307915 0.8064512 -0.2605701
vn -0.5307895 0.8475037 0
g Tire_Rear_0
f 3/3/3 2/2/2 1/1/1
f 4/4/4 3/3/3 1/1/1
f 5/5/5 3/3/3 4/4/4
f 6/6/6 5/5/5 4/4/4
f 7/7/7 5/5/5 6/6/6
f 8/8/8 7/7/7 6/6/6
f 9/9/9 7/7/7 8/8/8
f 10/10/10 9/9/9 8/8/8
f 11/11/11 9/9/9 10/10/10
f 12/12/12 11/11/11 10/10/10
f 13/13/13 11/11/11 12/12/12
f 14/14/14 13/13/13 12/12/12
f 15/15/15 13/13/13 14/14/14
f 16/16/16 15/15/15 14/14/14
f 17/17/17 15/15/15 16/16/16
f 18/18/18 17/17/17 16/16/16
f 19/19/19 17/17/17 18/18/18
f 20/20/20 19/19/19 18/18/18
f 21/21/21 19/19/19 20/20/20
f 22/22/22 21/21/21 20/20/20
f 23/23/23 21/21/21 22/22/22
f 24/24/24 23/23/23 22/22/22
f 25/25/25 23/23/23 24/24/24
f 26/26/26 25/25/25 24/24/24
f 27/27/27 25/25/25 26/26/26
f 28/28/28 27/27/27 26/26/26
f 29/29/29 27/27/27 28/28/28
f 30/30/30 29/29/29 28/28/28
f 31/31/31 29/29/29 30/30/30
f 32/32/32 31/31/31 30/30/30
f 33/33/33 31/31/31 32/32/32
f 34/34/34 33/33/33 32/32/32
f 35/35/35 33/33/33 34/34/34
f 36/36/36 35/35/35 34/34/34
f 37/37/37 35/35/35 36/36/36
f 38/38/38 37/37/37 36/36/36
f 39/39/39 37/37/37 38/38/38
f 40/40/40 39/39/39 38/38/38
f 41/41/41 39/39/39 40/40/40
f 42/42/42 41/41/41 40/40/40
f 45/45/45 44/44/44 43/43/43
f 43/43/43 44/44/44 46/46/46
f 46/46/46 44/44/44 47/47/47
f 47/47/47 44/44/44 48/48/48
f 48/48/48 44/44/44 49/49/49
f 49/49/49 44/44/44 50/50/50
f 50/50/50 44/44/44 51/51/51
f 51/51/51 44/44/44 52/52/52
f 52/52/52 44/44/44 53/53/53
f 53/53/53 44/44/44 54/54/54
f 54/54/54 44/44/44 55/55/55
f 55/55/55 44/44/44 56/56/56
f 56/56/56 44/44/44 57/57/57
f 57/57/57 44/44/44 58/58/58
f 58/58/58 44/44/44 59/59/59
f 59/59/59 44/44/44 60/60/60
f 60/60/60 44/44/44 61/61/61
f 61/61/61 44/44/44 62/62/62
f 62/62/62 44/44/44 63/63/63
f 63/63/63 44/44/44 45/45/45
f 66/66/66 65/65/65 64/64/64
f 67/67/67 65/65/65 66/66/66
f 68/68/68 65/65/65 67/67/67
f 69/69/69 65/65/65 68/68/68
f 70/70/70 65/65/65 69/69/69
f 71/71/71 65/65/65 70/70/70
f 72/72/72 65/65/65 71/71/71
f 73/73/73 65/65/65 72/72/72
f 74/74/74 65/65/65 73/73/73
f 75/75/75 65/65/65 74/74/74
f 76/76/76 65/65/65 75/75/75
f 77/77/77 65/65/65 76/76/76
f 78/78/78 65/65/65 77/77/77
f 79/79/79 65/65/65 78/78/78
f 80/80/80 65/65/65 79/79/79
f 81/81/81 65/65/65 80/80/80
f 82/82/82 65/65/65 81/81/81
f 83/83/83 65/65/65 82/82/82
f 84/84/84 65/65/65 83/83/83
f 64/64/64 65/65/65 84/84/84
f 87/87/87 86/86/86 85/85/85
f 88/88/88 87/87/87 85/85/85
f 87/87/87 89/89/89 86/86/86
f 89/89/89 90/90/90 86/86/86
f 89/89/89 91/91/91 90/90/90
f 91/91/91 92/92/92 90/90/90
f 91/91/91 93/93/93 92/92/92
f 93/93/93 94/94/94 92/92/92
f 93/93/93 95/95/95 94/94/94
f 95/95/95 96/96/96 94/94/94
f 95/95/95 97/97/97 96/96/96
f 97/97/97 98/98/98 96/96/96
f 97/97/97 99/99/99 98/98/98
f 99/99/99 100/100/100 98/98/98
f 99/99/99 101/101/101 100/100/100
f 101/101/101 102/102/102 100/100/100
f 101/101/101 103/103/103 102/102/102
f 103/103/103 104/104/104 102/102/102
f 103/103/103 105/105/105 104/104/104
f 105/105/105 106/106/106 104/104/104
f 105/105/105 107/107/107 106/106/106
f 107/107/107 108/108/108 106/106/106
f 107/107/107 109/109/109 108/108/108
f 109/109/109 110/110/110 108/108/108
f 109/109/109 111/111/111 110/110/110
f 111/111/111 112/112/112 110/110/110
f 111/111/111 113/113/113 112/112/112
f 113/113/113 114/114/114 112/112/112
f 113/113/113 115/115/115 114/114/114
f 115/115/115 116/116/116 114/114/114
f 115/115/115 117/117/117 116/116/116
f 117/117/117 118/118/118 116/116/116
f 117/117/117 119/119/119 118/118/118
f 119/119/119 120/120/120 118/118/118
f 119/119/119 121/121/121 120/120/120
f 121/121/121 122/122/122 120/120/120
f 121/121/121 123/123/123 122/122/122
f 123/123/123 124/124/124 122/122/122
f 123/123/123 125/125/125 124/124/124
f 125/125/125 126/126/126 124/124/124
f 129/129/129 128/128/128 127/127/127
f 129/129/129 127/127/127 130/130/130
f 129/129/129 130/130/130 131/131/131
f 129/129/129 131/131/131 132/132/132
f 129/129/129 132/132/132 133/133/133
f 129/129/129 133/133/133 134/134/134
f 129/129/129 134/134/134 135/135/135
f 129/129/129 135/135/135 136/136/136
f 129/129/129 136/136/136 137/137/137
f 129/129/129 137/137/137 138/138/138
f 129/129/129 138/138/138 139/139/139
f 129/129/129 139/139/139 140/140/140
f 129/129/129 140/140/140 141/141/141
f 129/129/129 141/141/141 142/142/142
f 129/129/129 142/142/142 143/143/143
f 129/129/129 143/143/143 144/144/144
f 129/129/129 144/144/144 145/145/145
f 129/129/129 145/145/145 146/146/146
f 129/129/129 146/146/146 147/147/147
f 129/129/129 147/147/147 128/128/128
f 150/150/150 149/149/149 148/148/148
f 150/150/150 151/151/151 149/149/149
f 150/150/150 152/152/152 151/151/151
f 150/150/150 153/153/153 152/152/152
f 150/150/150 154/154/154 153/153/153
f 150/150/150 155/155/155 154/154/154
f 150/150/150 156/156/156 155/155/155
f 150/150/150 157/157/157 156/156/156
f 150/150/150 158/158/158 157/157/157
f 150/150/150 159/159/159 158/158/158
f 150/150/150 160/160/160 159/159/159
f 150/150/150 161/161/161 160/160/160
f 150/150/150 162/162/162 161/161/161
f 150/150/150 163/163/163 162/162/162
f 150/150/150 164/164/164 163/163/163
f 150/150/150 165/165/165 164/164/164
f 150/150/150 166/166/166 165/165/165
f 150/150/150 167/167/167 166/166/166
f 150/150/150 168/168/168 167/167/167
f 150/150/150 148/148/148 168/168/168
